<mxfile host="app.diagrams.net" agent="Mozilla/5.0 (Windows NT 10.0; Win64; x64) AppleWebKit/537.36 (KHTML, like Gecko) Chrome/124.0.0.0 Safari/537.36 SLBrowser/9.0.5.8121 SLBChan/111 SLBVPV/64-bit" border="50" scale="3" compressed="false" locked="false" version="24.8.3">
  <diagram name="Blank" id="YmL12bMKpDGza6XwsDPr">
    <mxGraphModel dx="2278" dy="1378" grid="0" gridSize="10" guides="1" tooltips="1" connect="1" arrows="1" fold="1" page="1" pageScale="1" pageWidth="827" pageHeight="1169" background="none" math="1" shadow="0">
      <root>
        <mxCell id="X5NqExCQtvZxIxQ7pmgY-0" />
        <mxCell id="1" parent="X5NqExCQtvZxIxQ7pmgY-0" />
        <mxCell id="NjAqU9Y5rHBkyYTPuW-a-1" value="Process Bar" style="swimlane;fontStyle=2;childLayout=stackLayout;horizontal=1;startSize=20;fillColor=none;horizontalStack=1;resizeParent=1;resizeParentMax=0;resizeLast=0;collapsible=0;marginBottom=0;swimlaneFillColor=none;strokeColor=none;fontFamily=Helvetica;fontSize=14;fontColor=#BABABA;points=[];verticalAlign=middle;stackBorder=10;stackSpacing=-10;resizable=1;" parent="1" vertex="1">
          <mxGeometry x="219" y="111" width="390" height="100" as="geometry" />
        </mxCell>
        <mxCell id="NjAqU9Y5rHBkyYTPuW-a-2" value="Step 1" style="shape=step;perimeter=stepPerimeter;strokeColor=#6C8EBF;fontFamily=Helvetica;fontSize=14;fontColor=#6C8EBF;fillColor=#dae8fc;fixedSize=1;size=17;fontStyle=1;strokeWidth=2;spacingTop=0;points=[];" parent="NjAqU9Y5rHBkyYTPuW-a-1" vertex="1">
          <mxGeometry x="10" y="30" width="100" height="60" as="geometry" />
        </mxCell>
        <mxCell id="NjAqU9Y5rHBkyYTPuW-a-3" value="Step 2" style="shape=step;perimeter=stepPerimeter;strokeColor=#82B366;fontFamily=Helvetica;fontSize=14;fontColor=#82B366;fillColor=#d5e8d4;fixedSize=1;size=17;fontStyle=1;strokeWidth=2;spacingTop=0;points=[];" parent="NjAqU9Y5rHBkyYTPuW-a-1" vertex="1">
          <mxGeometry x="100" y="30" width="100" height="60" as="geometry" />
        </mxCell>
        <mxCell id="NjAqU9Y5rHBkyYTPuW-a-4" value="Step 3" style="shape=step;perimeter=stepPerimeter;strokeColor=#D6B656;fontFamily=Helvetica;fontSize=14;fontColor=#D6B656;fillColor=#fff2cc;fixedSize=1;size=17;fontStyle=1;strokeWidth=2;spacingTop=0;points=[];" parent="NjAqU9Y5rHBkyYTPuW-a-1" vertex="1">
          <mxGeometry x="190" y="30" width="100" height="60" as="geometry" />
        </mxCell>
        <mxCell id="NjAqU9Y5rHBkyYTPuW-a-5" value="Step 4" style="shape=step;perimeter=stepPerimeter;strokeColor=#B85450;fontFamily=Helvetica;fontSize=14;fontColor=#B85450;fillColor=#f8cecc;fixedSize=1;size=17;fontStyle=1;strokeWidth=2;spacingTop=0;points=[];" parent="NjAqU9Y5rHBkyYTPuW-a-1" vertex="1">
          <mxGeometry x="280" y="30" width="100" height="60" as="geometry" />
        </mxCell>
        <mxCell id="1fvloOwAejp9_GmJQ4Gn-1" value="" style="rounded=1;whiteSpace=wrap;html=1;fillColor=#E6E6E6;shadow=1;" vertex="1" parent="1">
          <mxGeometry x="826" y="572" width="329" height="106" as="geometry" />
        </mxCell>
        <mxCell id="1fvloOwAejp9_GmJQ4Gn-2" value="" style="rounded=1;whiteSpace=wrap;html=1;fillColor=#DAE8FC;shadow=1;" vertex="1" parent="1">
          <mxGeometry x="817" y="553" width="329" height="106" as="geometry" />
        </mxCell>
        <mxCell id="1fvloOwAejp9_GmJQ4Gn-3" value="" style="rounded=1;whiteSpace=wrap;html=1;fillColor=#FFF2CC;shadow=1;" vertex="1" parent="1">
          <mxGeometry x="809" y="535" width="329" height="106" as="geometry" />
        </mxCell>
        <mxCell id="1fvloOwAejp9_GmJQ4Gn-4" value="" style="rounded=1;whiteSpace=wrap;html=1;fillColor=#E6D0DE;shadow=1;" vertex="1" parent="1">
          <mxGeometry x="803" y="510" width="329" height="106" as="geometry" />
        </mxCell>
        <mxCell id="1fvloOwAejp9_GmJQ4Gn-5" value="" style="ellipse;shape=cloud;whiteSpace=wrap;html=1;" vertex="1" parent="1">
          <mxGeometry x="87" y="470" width="120" height="80" as="geometry" />
        </mxCell>
        <mxCell id="1fvloOwAejp9_GmJQ4Gn-6" value="" style="group" vertex="1" connectable="0" parent="1">
          <mxGeometry x="134" y="519" width="60" height="83" as="geometry" />
        </mxCell>
        <mxCell id="1fvloOwAejp9_GmJQ4Gn-7" value="" style="shape=actor;whiteSpace=wrap;html=1;fillColor=#4D4D4D;shadow=1;" vertex="1" parent="1fvloOwAejp9_GmJQ4Gn-6">
          <mxGeometry x="9" width="40" height="46" as="geometry" />
        </mxCell>
        <mxCell id="1fvloOwAejp9_GmJQ4Gn-8" value="" style="group;fillColor=none;" vertex="1" connectable="0" parent="1fvloOwAejp9_GmJQ4Gn-6">
          <mxGeometry x="-27" y="4" width="83" height="80" as="geometry" />
        </mxCell>
        <mxCell id="1fvloOwAejp9_GmJQ4Gn-9" value="" style="shape=actor;whiteSpace=wrap;html=1;fillColor=#4D4D4D;shadow=1;strokeColor=default;" vertex="1" parent="1fvloOwAejp9_GmJQ4Gn-8">
          <mxGeometry x="9" width="40" height="46" as="geometry" />
        </mxCell>
        <mxCell id="1fvloOwAejp9_GmJQ4Gn-10" value="&lt;font style=&quot;font-size: 14px;&quot;&gt;User data&lt;/font&gt;" style="text;strokeColor=none;align=center;fillColor=none;html=1;verticalAlign=middle;whiteSpace=wrap;rounded=0;fontStyle=3;movable=1;resizable=1;rotatable=1;deletable=1;editable=1;locked=0;connectable=1;" vertex="1" parent="1fvloOwAejp9_GmJQ4Gn-8">
          <mxGeometry y="43" width="83" height="30" as="geometry" />
        </mxCell>
        <mxCell id="1fvloOwAejp9_GmJQ4Gn-11" value="" style="shape=note;whiteSpace=wrap;html=1;backgroundOutline=1;darkOpacity=0.05;size=10;" vertex="1" parent="1">
          <mxGeometry x="131" y="484" width="21" height="26" as="geometry" />
        </mxCell>
        <mxCell id="1fvloOwAejp9_GmJQ4Gn-12" value="" style="shape=note;whiteSpace=wrap;html=1;backgroundOutline=1;darkOpacity=0.05;size=10;" vertex="1" parent="1">
          <mxGeometry x="134" y="487" width="21" height="26" as="geometry" />
        </mxCell>
        <mxCell id="1fvloOwAejp9_GmJQ4Gn-13" value="" style="line;strokeWidth=2;html=1;" vertex="1" parent="1">
          <mxGeometry x="138.5" y="498" width="11.5" height="8" as="geometry" />
        </mxCell>
        <mxCell id="1fvloOwAejp9_GmJQ4Gn-14" value="" style="line;strokeWidth=2;html=1;" vertex="1" parent="1">
          <mxGeometry x="138.75" y="504" width="11.5" height="9" as="geometry" />
        </mxCell>
        <mxCell id="1fvloOwAejp9_GmJQ4Gn-15" value="Step 1" style="shape=step;perimeter=stepPerimeter;strokeColor=#6C8EBF;fontFamily=Helvetica;fontSize=14;fontColor=#6C8EBF;fillColor=#dae8fc;fixedSize=1;size=17;fontStyle=1;strokeWidth=2;spacingTop=0;points=[];" vertex="1" parent="1">
          <mxGeometry x="67" y="398" width="190" height="60" as="geometry" />
        </mxCell>
        <mxCell id="1fvloOwAejp9_GmJQ4Gn-16" value="Step 4" style="shape=step;perimeter=stepPerimeter;strokeColor=#B85450;fontFamily=Helvetica;fontSize=14;fontColor=#B85450;fillColor=#f8cecc;fixedSize=1;size=17;fontStyle=1;strokeWidth=2;spacingTop=0;points=[];" vertex="1" parent="1">
          <mxGeometry x="1249" y="392" width="207" height="59" as="geometry" />
        </mxCell>
        <mxCell id="1fvloOwAejp9_GmJQ4Gn-17" value="" style="shape=singleArrow;whiteSpace=wrap;html=1;arrowWidth=0.4;arrowSize=0.4;" vertex="1" parent="1">
          <mxGeometry x="245" y="506" width="90" height="28" as="geometry" />
        </mxCell>
        <mxCell id="1fvloOwAejp9_GmJQ4Gn-18" value="" style="group" vertex="1" connectable="0" parent="1">
          <mxGeometry x="13" y="608" width="319" height="112" as="geometry" />
        </mxCell>
        <mxCell id="1fvloOwAejp9_GmJQ4Gn-19" value="Assets" style="childLayout=tableLayout;recursiveResize=0;strokeColor=#98bf21;fillColor=#A7C942;shadow=1;" vertex="1" parent="1fvloOwAejp9_GmJQ4Gn-18">
          <mxGeometry x="3" y="2" width="300" height="102" as="geometry" />
        </mxCell>
        <mxCell id="1fvloOwAejp9_GmJQ4Gn-20" style="shape=tableRow;horizontal=0;startSize=0;swimlaneHead=0;swimlaneBody=0;top=0;left=0;bottom=0;right=0;dropTarget=0;collapsible=0;recursiveResize=0;expand=0;fontStyle=0;strokeColor=inherit;fillColor=#ffffff;" vertex="1" parent="1fvloOwAejp9_GmJQ4Gn-19">
          <mxGeometry width="300" height="19" as="geometry" />
        </mxCell>
        <mxCell id="1fvloOwAejp9_GmJQ4Gn-21" value="&lt;span style=&quot;font-size: 9px;&quot;&gt;user id&lt;/span&gt;" style="connectable=0;recursiveResize=0;strokeColor=inherit;fillColor=#A7C942;align=center;fontStyle=1;fontColor=#FFFFFF;html=1;" vertex="1" parent="1fvloOwAejp9_GmJQ4Gn-20">
          <mxGeometry width="33" height="19" as="geometry">
            <mxRectangle width="33" height="19" as="alternateBounds" />
          </mxGeometry>
        </mxCell>
        <mxCell id="1fvloOwAejp9_GmJQ4Gn-22" value="&lt;span style=&quot;font-size: 9px;&quot;&gt;lexeme_string&lt;/span&gt;" style="connectable=0;recursiveResize=0;strokeColor=inherit;fillColor=#A7C942;align=center;fontStyle=1;fontColor=#FFFFFF;html=1;" vertex="1" parent="1fvloOwAejp9_GmJQ4Gn-20">
          <mxGeometry x="33" width="43" height="19" as="geometry">
            <mxRectangle width="43" height="19" as="alternateBounds" />
          </mxGeometry>
        </mxCell>
        <mxCell id="1fvloOwAejp9_GmJQ4Gn-23" value="&lt;div&gt;&lt;font style=&quot;font-size: 9px;&quot;&gt;word_seen&lt;/font&gt;&lt;/div&gt;" style="connectable=0;recursiveResize=0;strokeColor=inherit;fillColor=#A7C942;align=center;fontStyle=1;fontColor=#FFFFFF;html=1;" vertex="1" parent="1fvloOwAejp9_GmJQ4Gn-20">
          <mxGeometry x="76" width="45" height="19" as="geometry">
            <mxRectangle width="45" height="19" as="alternateBounds" />
          </mxGeometry>
        </mxCell>
        <mxCell id="1fvloOwAejp9_GmJQ4Gn-24" value="drink" style="connectable=0;recursiveResize=0;strokeColor=inherit;fillColor=#A7C942;align=center;fontStyle=1;fontColor=#FFFFFF;html=1;" vertex="1" parent="1fvloOwAejp9_GmJQ4Gn-20">
          <mxGeometry x="121" width="25" height="19" as="geometry">
            <mxRectangle width="25" height="19" as="alternateBounds" />
          </mxGeometry>
        </mxCell>
        <mxCell id="1fvloOwAejp9_GmJQ4Gn-25" value="beer" style="connectable=0;recursiveResize=0;strokeColor=inherit;fillColor=#A7C942;align=center;fontStyle=1;fontColor=#FFFFFF;html=1;" vertex="1" parent="1fvloOwAejp9_GmJQ4Gn-20">
          <mxGeometry x="146" width="41" height="19" as="geometry">
            <mxRectangle width="41" height="19" as="alternateBounds" />
          </mxGeometry>
        </mxCell>
        <mxCell id="1fvloOwAejp9_GmJQ4Gn-26" value="like" style="connectable=0;recursiveResize=0;strokeColor=inherit;fillColor=#A7C942;align=center;fontStyle=1;fontColor=#FFFFFF;html=1;" vertex="1" parent="1fvloOwAejp9_GmJQ4Gn-20">
          <mxGeometry x="187" width="37" height="19" as="geometry">
            <mxRectangle width="37" height="19" as="alternateBounds" />
          </mxGeometry>
        </mxCell>
        <mxCell id="1fvloOwAejp9_GmJQ4Gn-27" value="..." style="connectable=0;recursiveResize=0;strokeColor=inherit;fillColor=#A7C942;align=center;fontStyle=1;fontColor=#FFFFFF;html=1;" vertex="1" parent="1fvloOwAejp9_GmJQ4Gn-20">
          <mxGeometry x="224" width="38" height="19" as="geometry">
            <mxRectangle width="38" height="19" as="alternateBounds" />
          </mxGeometry>
        </mxCell>
        <mxCell id="1fvloOwAejp9_GmJQ4Gn-28" value="a" style="connectable=0;recursiveResize=0;strokeColor=inherit;fillColor=#A7C942;align=center;fontStyle=1;fontColor=#FFFFFF;html=1;" vertex="1" parent="1fvloOwAejp9_GmJQ4Gn-20">
          <mxGeometry x="262" width="38" height="19" as="geometry">
            <mxRectangle width="38" height="19" as="alternateBounds" />
          </mxGeometry>
        </mxCell>
        <mxCell id="1fvloOwAejp9_GmJQ4Gn-29" value="" style="shape=tableRow;horizontal=0;startSize=0;swimlaneHead=0;swimlaneBody=0;top=0;left=0;bottom=0;right=0;dropTarget=0;collapsible=0;recursiveResize=0;expand=0;fontStyle=0;strokeColor=inherit;fillColor=#ffffff;" vertex="1" parent="1fvloOwAejp9_GmJQ4Gn-19">
          <mxGeometry y="19" width="300" height="23" as="geometry" />
        </mxCell>
        <mxCell id="1fvloOwAejp9_GmJQ4Gn-30" value="&lt;span style=&quot;font-size: 9px;&quot;&gt;u:dDwF&lt;/span&gt;" style="connectable=0;recursiveResize=0;strokeColor=inherit;fillColor=inherit;align=center;whiteSpace=wrap;html=1;" vertex="1" parent="1fvloOwAejp9_GmJQ4Gn-29">
          <mxGeometry width="33" height="23" as="geometry">
            <mxRectangle width="33" height="23" as="alternateBounds" />
          </mxGeometry>
        </mxCell>
        <mxCell id="1fvloOwAejp9_GmJQ4Gn-31" value="drink" style="connectable=0;recursiveResize=0;strokeColor=inherit;fillColor=inherit;align=center;whiteSpace=wrap;html=1;" vertex="1" parent="1fvloOwAejp9_GmJQ4Gn-29">
          <mxGeometry x="33" width="43" height="23" as="geometry">
            <mxRectangle width="43" height="23" as="alternateBounds" />
          </mxGeometry>
        </mxCell>
        <mxCell id="1fvloOwAejp9_GmJQ4Gn-32" value="&lt;div&gt;9&lt;/div&gt;" style="connectable=0;recursiveResize=0;strokeColor=inherit;fillColor=inherit;align=center;whiteSpace=wrap;html=1;" vertex="1" parent="1fvloOwAejp9_GmJQ4Gn-29">
          <mxGeometry x="76" width="45" height="23" as="geometry">
            <mxRectangle width="45" height="23" as="alternateBounds" />
          </mxGeometry>
        </mxCell>
        <mxCell id="1fvloOwAejp9_GmJQ4Gn-33" value="0" style="connectable=0;recursiveResize=0;strokeColor=inherit;fillColor=inherit;align=center;whiteSpace=wrap;html=1;" vertex="1" parent="1fvloOwAejp9_GmJQ4Gn-29">
          <mxGeometry x="121" width="25" height="23" as="geometry">
            <mxRectangle width="25" height="23" as="alternateBounds" />
          </mxGeometry>
        </mxCell>
        <mxCell id="1fvloOwAejp9_GmJQ4Gn-34" value="0" style="connectable=0;recursiveResize=0;strokeColor=inherit;fillColor=inherit;align=center;whiteSpace=wrap;html=1;" vertex="1" parent="1fvloOwAejp9_GmJQ4Gn-29">
          <mxGeometry x="146" width="41" height="23" as="geometry">
            <mxRectangle width="41" height="23" as="alternateBounds" />
          </mxGeometry>
        </mxCell>
        <mxCell id="1fvloOwAejp9_GmJQ4Gn-35" value="0" style="connectable=0;recursiveResize=0;strokeColor=inherit;fillColor=inherit;align=center;whiteSpace=wrap;html=1;" vertex="1" parent="1fvloOwAejp9_GmJQ4Gn-29">
          <mxGeometry x="187" width="37" height="23" as="geometry">
            <mxRectangle width="37" height="23" as="alternateBounds" />
          </mxGeometry>
        </mxCell>
        <mxCell id="1fvloOwAejp9_GmJQ4Gn-36" value="..." style="connectable=0;recursiveResize=0;strokeColor=inherit;fillColor=inherit;align=center;whiteSpace=wrap;html=1;" vertex="1" parent="1fvloOwAejp9_GmJQ4Gn-29">
          <mxGeometry x="224" width="38" height="23" as="geometry">
            <mxRectangle width="38" height="23" as="alternateBounds" />
          </mxGeometry>
        </mxCell>
        <mxCell id="1fvloOwAejp9_GmJQ4Gn-37" value="0" style="connectable=0;recursiveResize=0;strokeColor=inherit;fillColor=inherit;align=center;whiteSpace=wrap;html=1;" vertex="1" parent="1fvloOwAejp9_GmJQ4Gn-29">
          <mxGeometry x="262" width="38" height="23" as="geometry">
            <mxRectangle width="38" height="23" as="alternateBounds" />
          </mxGeometry>
        </mxCell>
        <mxCell id="1fvloOwAejp9_GmJQ4Gn-38" value="" style="shape=tableRow;horizontal=0;startSize=0;swimlaneHead=0;swimlaneBody=0;top=0;left=0;bottom=0;right=0;dropTarget=0;collapsible=0;recursiveResize=0;expand=0;fontStyle=1;strokeColor=inherit;fillColor=#EAF2D3;" vertex="1" parent="1fvloOwAejp9_GmJQ4Gn-19">
          <mxGeometry y="42" width="300" height="17" as="geometry" />
        </mxCell>
        <mxCell id="1fvloOwAejp9_GmJQ4Gn-39" value="&lt;span style=&quot;font-size: 9px;&quot;&gt;u:dDwF&lt;/span&gt;" style="connectable=0;recursiveResize=0;strokeColor=inherit;fillColor=inherit;whiteSpace=wrap;html=1;" vertex="1" parent="1fvloOwAejp9_GmJQ4Gn-38">
          <mxGeometry width="33" height="17" as="geometry">
            <mxRectangle width="33" height="17" as="alternateBounds" />
          </mxGeometry>
        </mxCell>
        <mxCell id="1fvloOwAejp9_GmJQ4Gn-40" value="beer" style="connectable=0;recursiveResize=0;strokeColor=inherit;fillColor=inherit;whiteSpace=wrap;html=1;" vertex="1" parent="1fvloOwAejp9_GmJQ4Gn-38">
          <mxGeometry x="33" width="43" height="17" as="geometry">
            <mxRectangle width="43" height="17" as="alternateBounds" />
          </mxGeometry>
        </mxCell>
        <mxCell id="1fvloOwAejp9_GmJQ4Gn-41" value="7" style="connectable=0;recursiveResize=0;strokeColor=inherit;fillColor=inherit;whiteSpace=wrap;html=1;" vertex="1" parent="1fvloOwAejp9_GmJQ4Gn-38">
          <mxGeometry x="76" width="45" height="17" as="geometry">
            <mxRectangle width="45" height="17" as="alternateBounds" />
          </mxGeometry>
        </mxCell>
        <mxCell id="1fvloOwAejp9_GmJQ4Gn-42" value="9" style="connectable=0;recursiveResize=0;strokeColor=inherit;fillColor=inherit;whiteSpace=wrap;html=1;" vertex="1" parent="1fvloOwAejp9_GmJQ4Gn-38">
          <mxGeometry x="121" width="25" height="17" as="geometry">
            <mxRectangle width="25" height="17" as="alternateBounds" />
          </mxGeometry>
        </mxCell>
        <mxCell id="1fvloOwAejp9_GmJQ4Gn-43" value="0" style="connectable=0;recursiveResize=0;strokeColor=inherit;fillColor=inherit;whiteSpace=wrap;html=1;" vertex="1" parent="1fvloOwAejp9_GmJQ4Gn-38">
          <mxGeometry x="146" width="41" height="17" as="geometry">
            <mxRectangle width="41" height="17" as="alternateBounds" />
          </mxGeometry>
        </mxCell>
        <mxCell id="1fvloOwAejp9_GmJQ4Gn-44" value="0" style="connectable=0;recursiveResize=0;strokeColor=inherit;fillColor=inherit;whiteSpace=wrap;html=1;" vertex="1" parent="1fvloOwAejp9_GmJQ4Gn-38">
          <mxGeometry x="187" width="37" height="17" as="geometry">
            <mxRectangle width="37" height="17" as="alternateBounds" />
          </mxGeometry>
        </mxCell>
        <mxCell id="1fvloOwAejp9_GmJQ4Gn-45" value="..." style="connectable=0;recursiveResize=0;strokeColor=inherit;fillColor=inherit;whiteSpace=wrap;html=1;" vertex="1" parent="1fvloOwAejp9_GmJQ4Gn-38">
          <mxGeometry x="224" width="38" height="17" as="geometry">
            <mxRectangle width="38" height="17" as="alternateBounds" />
          </mxGeometry>
        </mxCell>
        <mxCell id="1fvloOwAejp9_GmJQ4Gn-46" value="0" style="connectable=0;recursiveResize=0;strokeColor=inherit;fillColor=inherit;whiteSpace=wrap;html=1;" vertex="1" parent="1fvloOwAejp9_GmJQ4Gn-38">
          <mxGeometry x="262" width="38" height="17" as="geometry">
            <mxRectangle width="38" height="17" as="alternateBounds" />
          </mxGeometry>
        </mxCell>
        <mxCell id="1fvloOwAejp9_GmJQ4Gn-47" value="" style="shape=tableRow;horizontal=0;startSize=0;swimlaneHead=0;swimlaneBody=0;top=0;left=0;bottom=0;right=0;dropTarget=0;collapsible=0;recursiveResize=0;expand=0;fontStyle=0;strokeColor=inherit;fillColor=#ffffff;" vertex="1" parent="1fvloOwAejp9_GmJQ4Gn-19">
          <mxGeometry y="59" width="300" height="22" as="geometry" />
        </mxCell>
        <mxCell id="1fvloOwAejp9_GmJQ4Gn-48" value="&lt;span style=&quot;font-size: 9px;&quot;&gt;u:dDwF&lt;/span&gt;" style="connectable=0;recursiveResize=0;strokeColor=inherit;fillColor=inherit;fontStyle=0;align=center;whiteSpace=wrap;html=1;" vertex="1" parent="1fvloOwAejp9_GmJQ4Gn-47">
          <mxGeometry width="33" height="22" as="geometry">
            <mxRectangle width="33" height="22" as="alternateBounds" />
          </mxGeometry>
        </mxCell>
        <mxCell id="1fvloOwAejp9_GmJQ4Gn-49" value="like" style="connectable=0;recursiveResize=0;strokeColor=inherit;fillColor=inherit;fontStyle=0;align=center;whiteSpace=wrap;html=1;" vertex="1" parent="1fvloOwAejp9_GmJQ4Gn-47">
          <mxGeometry x="33" width="43" height="22" as="geometry">
            <mxRectangle width="43" height="22" as="alternateBounds" />
          </mxGeometry>
        </mxCell>
        <mxCell id="1fvloOwAejp9_GmJQ4Gn-50" value="8" style="connectable=0;recursiveResize=0;strokeColor=inherit;fillColor=inherit;fontStyle=0;align=center;whiteSpace=wrap;html=1;" vertex="1" parent="1fvloOwAejp9_GmJQ4Gn-47">
          <mxGeometry x="76" width="45" height="22" as="geometry">
            <mxRectangle width="45" height="22" as="alternateBounds" />
          </mxGeometry>
        </mxCell>
        <mxCell id="1fvloOwAejp9_GmJQ4Gn-51" value="9" style="connectable=0;recursiveResize=0;strokeColor=inherit;fillColor=inherit;fontStyle=0;align=center;whiteSpace=wrap;html=1;" vertex="1" parent="1fvloOwAejp9_GmJQ4Gn-47">
          <mxGeometry x="121" width="25" height="22" as="geometry">
            <mxRectangle width="25" height="22" as="alternateBounds" />
          </mxGeometry>
        </mxCell>
        <mxCell id="1fvloOwAejp9_GmJQ4Gn-52" value="7" style="connectable=0;recursiveResize=0;strokeColor=inherit;fillColor=inherit;fontStyle=0;align=center;whiteSpace=wrap;html=1;" vertex="1" parent="1fvloOwAejp9_GmJQ4Gn-47">
          <mxGeometry x="146" width="41" height="22" as="geometry">
            <mxRectangle width="41" height="22" as="alternateBounds" />
          </mxGeometry>
        </mxCell>
        <mxCell id="1fvloOwAejp9_GmJQ4Gn-53" value="0" style="connectable=0;recursiveResize=0;strokeColor=inherit;fillColor=inherit;fontStyle=0;align=center;whiteSpace=wrap;html=1;" vertex="1" parent="1fvloOwAejp9_GmJQ4Gn-47">
          <mxGeometry x="187" width="37" height="22" as="geometry">
            <mxRectangle width="37" height="22" as="alternateBounds" />
          </mxGeometry>
        </mxCell>
        <mxCell id="1fvloOwAejp9_GmJQ4Gn-54" value="..." style="connectable=0;recursiveResize=0;strokeColor=inherit;fillColor=inherit;fontStyle=0;align=center;whiteSpace=wrap;html=1;" vertex="1" parent="1fvloOwAejp9_GmJQ4Gn-47">
          <mxGeometry x="224" width="38" height="22" as="geometry">
            <mxRectangle width="38" height="22" as="alternateBounds" />
          </mxGeometry>
        </mxCell>
        <mxCell id="1fvloOwAejp9_GmJQ4Gn-55" value="0" style="connectable=0;recursiveResize=0;strokeColor=inherit;fillColor=inherit;fontStyle=0;align=center;whiteSpace=wrap;html=1;" vertex="1" parent="1fvloOwAejp9_GmJQ4Gn-47">
          <mxGeometry x="262" width="38" height="22" as="geometry">
            <mxRectangle width="38" height="22" as="alternateBounds" />
          </mxGeometry>
        </mxCell>
        <mxCell id="1fvloOwAejp9_GmJQ4Gn-56" value="" style="shape=tableRow;horizontal=0;startSize=0;swimlaneHead=0;swimlaneBody=0;top=0;left=0;bottom=0;right=0;dropTarget=0;collapsible=0;recursiveResize=0;expand=0;fontStyle=1;strokeColor=inherit;fillColor=#EAF2D3;" vertex="1" parent="1fvloOwAejp9_GmJQ4Gn-19">
          <mxGeometry y="81" width="300" height="21" as="geometry" />
        </mxCell>
        <mxCell id="1fvloOwAejp9_GmJQ4Gn-57" value="&lt;span style=&quot;font-size: 9px;&quot;&gt;u:dDwF&lt;/span&gt;" style="connectable=0;recursiveResize=0;strokeColor=inherit;fillColor=inherit;whiteSpace=wrap;html=1;" vertex="1" parent="1fvloOwAejp9_GmJQ4Gn-56">
          <mxGeometry width="33" height="21" as="geometry">
            <mxRectangle width="33" height="21" as="alternateBounds" />
          </mxGeometry>
        </mxCell>
        <mxCell id="1fvloOwAejp9_GmJQ4Gn-58" value="a" style="connectable=0;recursiveResize=0;strokeColor=inherit;fillColor=inherit;whiteSpace=wrap;html=1;" vertex="1" parent="1fvloOwAejp9_GmJQ4Gn-56">
          <mxGeometry x="33" width="43" height="21" as="geometry">
            <mxRectangle width="43" height="21" as="alternateBounds" />
          </mxGeometry>
        </mxCell>
        <mxCell id="1fvloOwAejp9_GmJQ4Gn-59" value="12" style="connectable=0;recursiveResize=0;strokeColor=inherit;fillColor=inherit;whiteSpace=wrap;html=1;" vertex="1" parent="1fvloOwAejp9_GmJQ4Gn-56">
          <mxGeometry x="76" width="45" height="21" as="geometry">
            <mxRectangle width="45" height="21" as="alternateBounds" />
          </mxGeometry>
        </mxCell>
        <mxCell id="1fvloOwAejp9_GmJQ4Gn-60" value="9" style="connectable=0;recursiveResize=0;strokeColor=inherit;fillColor=inherit;whiteSpace=wrap;html=1;" vertex="1" parent="1fvloOwAejp9_GmJQ4Gn-56">
          <mxGeometry x="121" width="25" height="21" as="geometry">
            <mxRectangle width="25" height="21" as="alternateBounds" />
          </mxGeometry>
        </mxCell>
        <mxCell id="1fvloOwAejp9_GmJQ4Gn-61" value="7" style="connectable=0;recursiveResize=0;strokeColor=inherit;fillColor=inherit;whiteSpace=wrap;html=1;" vertex="1" parent="1fvloOwAejp9_GmJQ4Gn-56">
          <mxGeometry x="146" width="41" height="21" as="geometry">
            <mxRectangle width="41" height="21" as="alternateBounds" />
          </mxGeometry>
        </mxCell>
        <mxCell id="1fvloOwAejp9_GmJQ4Gn-62" value="8" style="connectable=0;recursiveResize=0;strokeColor=inherit;fillColor=inherit;whiteSpace=wrap;html=1;" vertex="1" parent="1fvloOwAejp9_GmJQ4Gn-56">
          <mxGeometry x="187" width="37" height="21" as="geometry">
            <mxRectangle width="37" height="21" as="alternateBounds" />
          </mxGeometry>
        </mxCell>
        <mxCell id="1fvloOwAejp9_GmJQ4Gn-63" value="..." style="connectable=0;recursiveResize=0;strokeColor=inherit;fillColor=inherit;whiteSpace=wrap;html=1;" vertex="1" parent="1fvloOwAejp9_GmJQ4Gn-56">
          <mxGeometry x="224" width="38" height="21" as="geometry">
            <mxRectangle width="38" height="21" as="alternateBounds" />
          </mxGeometry>
        </mxCell>
        <mxCell id="1fvloOwAejp9_GmJQ4Gn-64" value="0" style="connectable=0;recursiveResize=0;strokeColor=inherit;fillColor=inherit;whiteSpace=wrap;html=1;" vertex="1" parent="1fvloOwAejp9_GmJQ4Gn-56">
          <mxGeometry x="262" width="38" height="21" as="geometry">
            <mxRectangle width="38" height="21" as="alternateBounds" />
          </mxGeometry>
        </mxCell>
        <mxCell id="1fvloOwAejp9_GmJQ4Gn-65" value="" style="rounded=0;whiteSpace=wrap;html=1;fillColor=none;strokeColor=#FF6666;" vertex="1" parent="1fvloOwAejp9_GmJQ4Gn-18">
          <mxGeometry x="1" y="83" width="304" height="22" as="geometry" />
        </mxCell>
        <mxCell id="1fvloOwAejp9_GmJQ4Gn-66" value="" style="group" vertex="1" connectable="0" parent="1">
          <mxGeometry x="417" y="398" width="143" height="197" as="geometry" />
        </mxCell>
        <mxCell id="1fvloOwAejp9_GmJQ4Gn-67" value="" style="group" vertex="1" connectable="0" parent="1fvloOwAejp9_GmJQ4Gn-66">
          <mxGeometry x="64" y="87" width="37" height="79" as="geometry" />
        </mxCell>
        <mxCell id="1fvloOwAejp9_GmJQ4Gn-68" value="" style="rounded=1;whiteSpace=wrap;html=1;fillColor=#4D4D4D;strokeColor=#FFFFFF;" vertex="1" parent="1fvloOwAejp9_GmJQ4Gn-67">
          <mxGeometry width="37" height="79" as="geometry" />
        </mxCell>
        <mxCell id="1fvloOwAejp9_GmJQ4Gn-69" value="" style="endArrow=none;html=1;rounded=0;strokeColor=#FFFFFF;" edge="1" parent="1fvloOwAejp9_GmJQ4Gn-67">
          <mxGeometry width="50" height="50" relative="1" as="geometry">
            <mxPoint x="5" y="20" as="sourcePoint" />
            <mxPoint x="33" y="20" as="targetPoint" />
          </mxGeometry>
        </mxCell>
        <mxCell id="1fvloOwAejp9_GmJQ4Gn-70" value="" style="endArrow=none;html=1;rounded=0;strokeColor=#FFFFFF;" edge="1" parent="1fvloOwAejp9_GmJQ4Gn-67">
          <mxGeometry width="50" height="50" relative="1" as="geometry">
            <mxPoint x="5" y="53" as="sourcePoint" />
            <mxPoint x="33" y="53" as="targetPoint" />
          </mxGeometry>
        </mxCell>
        <mxCell id="1fvloOwAejp9_GmJQ4Gn-71" value="" style="endArrow=none;html=1;rounded=0;strokeColor=#FFFFFF;" edge="1" parent="1fvloOwAejp9_GmJQ4Gn-67">
          <mxGeometry width="50" height="50" relative="1" as="geometry">
            <mxPoint x="5" y="61" as="sourcePoint" />
            <mxPoint x="33" y="61" as="targetPoint" />
          </mxGeometry>
        </mxCell>
        <mxCell id="1fvloOwAejp9_GmJQ4Gn-72" value="Step 2" style="shape=step;perimeter=stepPerimeter;strokeColor=#82B366;fontFamily=Helvetica;fontSize=14;fontColor=#82B366;fillColor=#d5e8d4;fixedSize=1;size=17;fontStyle=1;strokeWidth=2;spacingTop=0;points=[];" vertex="1" parent="1fvloOwAejp9_GmJQ4Gn-66">
          <mxGeometry x="-36" width="179" height="60" as="geometry" />
        </mxCell>
        <mxCell id="1fvloOwAejp9_GmJQ4Gn-73" value="" style="group" vertex="1" connectable="0" parent="1fvloOwAejp9_GmJQ4Gn-66">
          <mxGeometry y="118" width="76" height="79" as="geometry" />
        </mxCell>
        <mxCell id="1fvloOwAejp9_GmJQ4Gn-74" value="" style="group" vertex="1" connectable="0" parent="1fvloOwAejp9_GmJQ4Gn-73">
          <mxGeometry x="16" y="-30" width="37" height="79" as="geometry" />
        </mxCell>
        <mxCell id="1fvloOwAejp9_GmJQ4Gn-75" value="" style="rounded=1;whiteSpace=wrap;html=1;fillColor=#4D4D4D;strokeColor=#FFFFFF;" vertex="1" parent="1fvloOwAejp9_GmJQ4Gn-74">
          <mxGeometry width="37" height="79" as="geometry" />
        </mxCell>
        <mxCell id="1fvloOwAejp9_GmJQ4Gn-76" value="" style="endArrow=none;html=1;rounded=0;strokeColor=#FFFFFF;" edge="1" parent="1fvloOwAejp9_GmJQ4Gn-74">
          <mxGeometry width="50" height="50" relative="1" as="geometry">
            <mxPoint x="5" y="20" as="sourcePoint" />
            <mxPoint x="33" y="20" as="targetPoint" />
          </mxGeometry>
        </mxCell>
        <mxCell id="1fvloOwAejp9_GmJQ4Gn-77" value="" style="endArrow=none;html=1;rounded=0;strokeColor=#FFFFFF;" edge="1" parent="1fvloOwAejp9_GmJQ4Gn-74">
          <mxGeometry width="50" height="50" relative="1" as="geometry">
            <mxPoint x="5" y="53" as="sourcePoint" />
            <mxPoint x="33" y="53" as="targetPoint" />
          </mxGeometry>
        </mxCell>
        <mxCell id="1fvloOwAejp9_GmJQ4Gn-78" value="" style="endArrow=none;html=1;rounded=0;strokeColor=#FFFFFF;" edge="1" parent="1fvloOwAejp9_GmJQ4Gn-74">
          <mxGeometry width="50" height="50" relative="1" as="geometry">
            <mxPoint x="5" y="61" as="sourcePoint" />
            <mxPoint x="33" y="61" as="targetPoint" />
          </mxGeometry>
        </mxCell>
        <mxCell id="1fvloOwAejp9_GmJQ4Gn-79" value="" style="rounded=1;whiteSpace=wrap;html=1;fillColor=#4D4D4D;strokeColor=#FFFFFF;" vertex="1" parent="1fvloOwAejp9_GmJQ4Gn-73">
          <mxGeometry width="37" height="79" as="geometry" />
        </mxCell>
        <mxCell id="1fvloOwAejp9_GmJQ4Gn-80" value="" style="endArrow=none;html=1;rounded=0;strokeColor=#FFFFFF;" edge="1" parent="1fvloOwAejp9_GmJQ4Gn-73">
          <mxGeometry width="50" height="50" relative="1" as="geometry">
            <mxPoint x="5" y="20" as="sourcePoint" />
            <mxPoint x="33" y="20" as="targetPoint" />
          </mxGeometry>
        </mxCell>
        <mxCell id="1fvloOwAejp9_GmJQ4Gn-81" value="" style="endArrow=none;html=1;rounded=0;strokeColor=#FFFFFF;" edge="1" parent="1fvloOwAejp9_GmJQ4Gn-73">
          <mxGeometry width="50" height="50" relative="1" as="geometry">
            <mxPoint x="5" y="53" as="sourcePoint" />
            <mxPoint x="33" y="53" as="targetPoint" />
          </mxGeometry>
        </mxCell>
        <mxCell id="1fvloOwAejp9_GmJQ4Gn-82" value="" style="endArrow=none;html=1;rounded=0;strokeColor=#FFFFFF;" edge="1" parent="1fvloOwAejp9_GmJQ4Gn-73">
          <mxGeometry width="50" height="50" relative="1" as="geometry">
            <mxPoint x="5" y="61" as="sourcePoint" />
            <mxPoint x="33" y="61" as="targetPoint" />
          </mxGeometry>
        </mxCell>
        <mxCell id="1fvloOwAejp9_GmJQ4Gn-83" value="" style="group" vertex="1" connectable="0" parent="1fvloOwAejp9_GmJQ4Gn-73">
          <mxGeometry x="39" width="37" height="79" as="geometry" />
        </mxCell>
        <mxCell id="1fvloOwAejp9_GmJQ4Gn-84" value="" style="rounded=1;whiteSpace=wrap;html=1;fillColor=#4D4D4D;strokeColor=#FFFFFF;" vertex="1" parent="1fvloOwAejp9_GmJQ4Gn-83">
          <mxGeometry x="-1" width="37" height="79" as="geometry" />
        </mxCell>
        <mxCell id="1fvloOwAejp9_GmJQ4Gn-85" value="" style="endArrow=none;html=1;rounded=0;strokeColor=#FFFFFF;" edge="1" parent="1fvloOwAejp9_GmJQ4Gn-83">
          <mxGeometry width="50" height="50" relative="1" as="geometry">
            <mxPoint x="5" y="20" as="sourcePoint" />
            <mxPoint x="33" y="20" as="targetPoint" />
          </mxGeometry>
        </mxCell>
        <mxCell id="1fvloOwAejp9_GmJQ4Gn-86" value="" style="endArrow=none;html=1;rounded=0;strokeColor=#FFFFFF;" edge="1" parent="1fvloOwAejp9_GmJQ4Gn-83">
          <mxGeometry width="50" height="50" relative="1" as="geometry">
            <mxPoint x="5" y="53" as="sourcePoint" />
            <mxPoint x="33" y="53" as="targetPoint" />
          </mxGeometry>
        </mxCell>
        <mxCell id="1fvloOwAejp9_GmJQ4Gn-87" value="" style="endArrow=none;html=1;rounded=0;strokeColor=#FFFFFF;" edge="1" parent="1fvloOwAejp9_GmJQ4Gn-83">
          <mxGeometry width="50" height="50" relative="1" as="geometry">
            <mxPoint x="5" y="61" as="sourcePoint" />
            <mxPoint x="33" y="61" as="targetPoint" />
          </mxGeometry>
        </mxCell>
        <mxCell id="1fvloOwAejp9_GmJQ4Gn-88" value="" style="group" vertex="1" connectable="0" parent="1fvloOwAejp9_GmJQ4Gn-66">
          <mxGeometry x="76" y="118" width="37" height="79" as="geometry" />
        </mxCell>
        <mxCell id="1fvloOwAejp9_GmJQ4Gn-89" value="" style="rounded=1;whiteSpace=wrap;html=1;fillColor=#4D4D4D;strokeColor=#FFFFFF;" vertex="1" parent="1fvloOwAejp9_GmJQ4Gn-88">
          <mxGeometry width="37" height="79" as="geometry" />
        </mxCell>
        <mxCell id="1fvloOwAejp9_GmJQ4Gn-90" value="" style="endArrow=none;html=1;rounded=0;strokeColor=#FFFFFF;" edge="1" parent="1fvloOwAejp9_GmJQ4Gn-88">
          <mxGeometry width="50" height="50" relative="1" as="geometry">
            <mxPoint x="5" y="20" as="sourcePoint" />
            <mxPoint x="33" y="20" as="targetPoint" />
          </mxGeometry>
        </mxCell>
        <mxCell id="1fvloOwAejp9_GmJQ4Gn-91" value="" style="endArrow=none;html=1;rounded=0;strokeColor=#FFFFFF;" edge="1" parent="1fvloOwAejp9_GmJQ4Gn-88">
          <mxGeometry width="50" height="50" relative="1" as="geometry">
            <mxPoint x="5" y="53" as="sourcePoint" />
            <mxPoint x="33" y="53" as="targetPoint" />
          </mxGeometry>
        </mxCell>
        <mxCell id="1fvloOwAejp9_GmJQ4Gn-92" value="" style="endArrow=none;html=1;rounded=0;strokeColor=#FFFFFF;" edge="1" parent="1fvloOwAejp9_GmJQ4Gn-88">
          <mxGeometry width="50" height="50" relative="1" as="geometry">
            <mxPoint x="5" y="61" as="sourcePoint" />
            <mxPoint x="33" y="61" as="targetPoint" />
          </mxGeometry>
        </mxCell>
        <mxCell id="1fvloOwAejp9_GmJQ4Gn-93" value="" style="group" vertex="1" connectable="0" parent="1">
          <mxGeometry x="338" y="608" width="354" height="132" as="geometry" />
        </mxCell>
        <mxCell id="1fvloOwAejp9_GmJQ4Gn-94" value="Assets" style="childLayout=tableLayout;recursiveResize=0;strokeColor=#98bf21;fillColor=#A7C942;shadow=1;" vertex="1" parent="1fvloOwAejp9_GmJQ4Gn-93">
          <mxGeometry y="4" width="302" height="99" as="geometry" />
        </mxCell>
        <mxCell id="1fvloOwAejp9_GmJQ4Gn-95" style="shape=tableRow;horizontal=0;startSize=0;swimlaneHead=0;swimlaneBody=0;top=0;left=0;bottom=0;right=0;dropTarget=0;collapsible=0;recursiveResize=0;expand=0;fontStyle=0;strokeColor=inherit;fillColor=#ffffff;" vertex="1" parent="1fvloOwAejp9_GmJQ4Gn-94">
          <mxGeometry width="302" height="19" as="geometry" />
        </mxCell>
        <mxCell id="1fvloOwAejp9_GmJQ4Gn-96" value="&lt;span style=&quot;font-size: 9px;&quot;&gt;user id&lt;/span&gt;" style="connectable=0;recursiveResize=0;strokeColor=inherit;fillColor=#A7C942;align=center;fontStyle=1;fontColor=#FFFFFF;html=1;" vertex="1" parent="1fvloOwAejp9_GmJQ4Gn-95">
          <mxGeometry width="41" height="19" as="geometry">
            <mxRectangle width="41" height="19" as="alternateBounds" />
          </mxGeometry>
        </mxCell>
        <mxCell id="1fvloOwAejp9_GmJQ4Gn-97" value="&lt;span style=&quot;font-size: 9px;&quot;&gt;lexeme_string&lt;/span&gt;" style="connectable=0;recursiveResize=0;strokeColor=inherit;fillColor=#A7C942;align=center;fontStyle=1;fontColor=#FFFFFF;html=1;" vertex="1" parent="1fvloOwAejp9_GmJQ4Gn-95">
          <mxGeometry x="41" width="60" height="19" as="geometry">
            <mxRectangle width="60" height="19" as="alternateBounds" />
          </mxGeometry>
        </mxCell>
        <mxCell id="1fvloOwAejp9_GmJQ4Gn-98" value="beer" style="connectable=0;recursiveResize=0;strokeColor=inherit;fillColor=#A7C942;align=center;fontStyle=1;fontColor=#FFFFFF;html=1;" vertex="1" parent="1fvloOwAejp9_GmJQ4Gn-95">
          <mxGeometry x="101" width="44" height="19" as="geometry">
            <mxRectangle width="44" height="19" as="alternateBounds" />
          </mxGeometry>
        </mxCell>
        <mxCell id="1fvloOwAejp9_GmJQ4Gn-99" value="like" style="connectable=0;recursiveResize=0;strokeColor=inherit;fillColor=#A7C942;align=center;fontStyle=1;fontColor=#FFFFFF;html=1;" vertex="1" parent="1fvloOwAejp9_GmJQ4Gn-95">
          <mxGeometry x="145" width="35" height="19" as="geometry">
            <mxRectangle width="35" height="19" as="alternateBounds" />
          </mxGeometry>
        </mxCell>
        <mxCell id="1fvloOwAejp9_GmJQ4Gn-100" value="thank" style="connectable=0;recursiveResize=0;strokeColor=inherit;fillColor=#A7C942;align=center;fontStyle=1;fontColor=#FFFFFF;html=1;" vertex="1" parent="1fvloOwAejp9_GmJQ4Gn-95">
          <mxGeometry x="180" width="36" height="19" as="geometry">
            <mxRectangle width="36" height="19" as="alternateBounds" />
          </mxGeometry>
        </mxCell>
        <mxCell id="1fvloOwAejp9_GmJQ4Gn-101" value="..." style="connectable=0;recursiveResize=0;strokeColor=inherit;fillColor=#A7C942;align=center;fontStyle=1;fontColor=#FFFFFF;html=1;" vertex="1" parent="1fvloOwAejp9_GmJQ4Gn-95">
          <mxGeometry x="216" width="43" height="19" as="geometry">
            <mxRectangle width="43" height="19" as="alternateBounds" />
          </mxGeometry>
        </mxCell>
        <mxCell id="1fvloOwAejp9_GmJQ4Gn-102" value="a" style="connectable=0;recursiveResize=0;strokeColor=inherit;fillColor=#A7C942;align=center;fontStyle=1;fontColor=#FFFFFF;html=1;" vertex="1" parent="1fvloOwAejp9_GmJQ4Gn-95">
          <mxGeometry x="259" width="43" height="19" as="geometry">
            <mxRectangle width="43" height="19" as="alternateBounds" />
          </mxGeometry>
        </mxCell>
        <mxCell id="1fvloOwAejp9_GmJQ4Gn-103" value="" style="shape=tableRow;horizontal=0;startSize=0;swimlaneHead=0;swimlaneBody=0;top=0;left=0;bottom=0;right=0;dropTarget=0;collapsible=0;recursiveResize=0;expand=0;fontStyle=0;strokeColor=inherit;fillColor=#ffffff;" vertex="1" parent="1fvloOwAejp9_GmJQ4Gn-94">
          <mxGeometry y="19" width="302" height="21" as="geometry" />
        </mxCell>
        <mxCell id="1fvloOwAejp9_GmJQ4Gn-104" value="&lt;span style=&quot;font-size: 9px;&quot;&gt;u:dDwF&lt;/span&gt;" style="connectable=0;recursiveResize=0;strokeColor=inherit;fillColor=inherit;align=center;whiteSpace=wrap;html=1;" vertex="1" parent="1fvloOwAejp9_GmJQ4Gn-103">
          <mxGeometry width="41" height="21" as="geometry">
            <mxRectangle width="41" height="21" as="alternateBounds" />
          </mxGeometry>
        </mxCell>
        <mxCell id="1fvloOwAejp9_GmJQ4Gn-105" value="drink" style="connectable=0;recursiveResize=0;strokeColor=inherit;fillColor=inherit;align=center;whiteSpace=wrap;html=1;" vertex="1" parent="1fvloOwAejp9_GmJQ4Gn-103">
          <mxGeometry x="41" width="60" height="21" as="geometry">
            <mxRectangle width="60" height="21" as="alternateBounds" />
          </mxGeometry>
        </mxCell>
        <mxCell id="1fvloOwAejp9_GmJQ4Gn-106" value="7" style="connectable=0;recursiveResize=0;strokeColor=inherit;fillColor=inherit;align=center;whiteSpace=wrap;html=1;" vertex="1" parent="1fvloOwAejp9_GmJQ4Gn-103">
          <mxGeometry x="101" width="44" height="21" as="geometry">
            <mxRectangle width="44" height="21" as="alternateBounds" />
          </mxGeometry>
        </mxCell>
        <mxCell id="1fvloOwAejp9_GmJQ4Gn-107" value="8" style="connectable=0;recursiveResize=0;strokeColor=inherit;fillColor=inherit;align=center;whiteSpace=wrap;html=1;" vertex="1" parent="1fvloOwAejp9_GmJQ4Gn-103">
          <mxGeometry x="145" width="35" height="21" as="geometry">
            <mxRectangle width="35" height="21" as="alternateBounds" />
          </mxGeometry>
        </mxCell>
        <mxCell id="1fvloOwAejp9_GmJQ4Gn-108" value="54" style="connectable=0;recursiveResize=0;strokeColor=inherit;fillColor=inherit;align=center;whiteSpace=wrap;html=1;" vertex="1" parent="1fvloOwAejp9_GmJQ4Gn-103">
          <mxGeometry x="180" width="36" height="21" as="geometry">
            <mxRectangle width="36" height="21" as="alternateBounds" />
          </mxGeometry>
        </mxCell>
        <mxCell id="1fvloOwAejp9_GmJQ4Gn-109" value="..." style="connectable=0;recursiveResize=0;strokeColor=inherit;fillColor=inherit;align=center;whiteSpace=wrap;html=1;" vertex="1" parent="1fvloOwAejp9_GmJQ4Gn-103">
          <mxGeometry x="216" width="43" height="21" as="geometry">
            <mxRectangle width="43" height="21" as="alternateBounds" />
          </mxGeometry>
        </mxCell>
        <mxCell id="1fvloOwAejp9_GmJQ4Gn-110" value="121" style="connectable=0;recursiveResize=0;strokeColor=inherit;fillColor=inherit;align=center;whiteSpace=wrap;html=1;" vertex="1" parent="1fvloOwAejp9_GmJQ4Gn-103">
          <mxGeometry x="259" width="43" height="21" as="geometry">
            <mxRectangle width="43" height="21" as="alternateBounds" />
          </mxGeometry>
        </mxCell>
        <mxCell id="1fvloOwAejp9_GmJQ4Gn-111" value="" style="shape=tableRow;horizontal=0;startSize=0;swimlaneHead=0;swimlaneBody=0;top=0;left=0;bottom=0;right=0;dropTarget=0;collapsible=0;recursiveResize=0;expand=0;fontStyle=1;strokeColor=inherit;fillColor=#EAF2D3;" vertex="1" parent="1fvloOwAejp9_GmJQ4Gn-94">
          <mxGeometry y="40" width="302" height="19" as="geometry" />
        </mxCell>
        <mxCell id="1fvloOwAejp9_GmJQ4Gn-112" value="&lt;font style=&quot;font-size: 9px;&quot;&gt;u:u:h3xf&lt;/font&gt;" style="connectable=0;recursiveResize=0;strokeColor=inherit;fillColor=inherit;whiteSpace=wrap;html=1;" vertex="1" parent="1fvloOwAejp9_GmJQ4Gn-111">
          <mxGeometry width="41" height="19" as="geometry">
            <mxRectangle width="41" height="19" as="alternateBounds" />
          </mxGeometry>
        </mxCell>
        <mxCell id="1fvloOwAejp9_GmJQ4Gn-113" value="drink" style="connectable=0;recursiveResize=0;strokeColor=inherit;fillColor=inherit;whiteSpace=wrap;html=1;" vertex="1" parent="1fvloOwAejp9_GmJQ4Gn-111">
          <mxGeometry x="41" width="60" height="19" as="geometry">
            <mxRectangle width="60" height="19" as="alternateBounds" />
          </mxGeometry>
        </mxCell>
        <mxCell id="1fvloOwAejp9_GmJQ4Gn-114" value="59" style="connectable=0;recursiveResize=0;strokeColor=inherit;fillColor=inherit;whiteSpace=wrap;html=1;" vertex="1" parent="1fvloOwAejp9_GmJQ4Gn-111">
          <mxGeometry x="101" width="44" height="19" as="geometry">
            <mxRectangle width="44" height="19" as="alternateBounds" />
          </mxGeometry>
        </mxCell>
        <mxCell id="1fvloOwAejp9_GmJQ4Gn-115" value="40" style="connectable=0;recursiveResize=0;strokeColor=inherit;fillColor=inherit;whiteSpace=wrap;html=1;" vertex="1" parent="1fvloOwAejp9_GmJQ4Gn-111">
          <mxGeometry x="145" width="35" height="19" as="geometry">
            <mxRectangle width="35" height="19" as="alternateBounds" />
          </mxGeometry>
        </mxCell>
        <mxCell id="1fvloOwAejp9_GmJQ4Gn-116" value="23" style="connectable=0;recursiveResize=0;strokeColor=inherit;fillColor=inherit;whiteSpace=wrap;html=1;" vertex="1" parent="1fvloOwAejp9_GmJQ4Gn-111">
          <mxGeometry x="180" width="36" height="19" as="geometry">
            <mxRectangle width="36" height="19" as="alternateBounds" />
          </mxGeometry>
        </mxCell>
        <mxCell id="1fvloOwAejp9_GmJQ4Gn-117" value="..." style="connectable=0;recursiveResize=0;strokeColor=inherit;fillColor=inherit;whiteSpace=wrap;html=1;" vertex="1" parent="1fvloOwAejp9_GmJQ4Gn-111">
          <mxGeometry x="216" width="43" height="19" as="geometry">
            <mxRectangle width="43" height="19" as="alternateBounds" />
          </mxGeometry>
        </mxCell>
        <mxCell id="1fvloOwAejp9_GmJQ4Gn-118" value="84" style="connectable=0;recursiveResize=0;strokeColor=inherit;fillColor=inherit;whiteSpace=wrap;html=1;" vertex="1" parent="1fvloOwAejp9_GmJQ4Gn-111">
          <mxGeometry x="259" width="43" height="19" as="geometry">
            <mxRectangle width="43" height="19" as="alternateBounds" />
          </mxGeometry>
        </mxCell>
        <mxCell id="1fvloOwAejp9_GmJQ4Gn-119" value="" style="shape=tableRow;horizontal=0;startSize=0;swimlaneHead=0;swimlaneBody=0;top=0;left=0;bottom=0;right=0;dropTarget=0;collapsible=0;recursiveResize=0;expand=0;fontStyle=0;strokeColor=inherit;fillColor=#ffffff;" vertex="1" parent="1fvloOwAejp9_GmJQ4Gn-94">
          <mxGeometry y="59" width="302" height="20" as="geometry" />
        </mxCell>
        <mxCell id="1fvloOwAejp9_GmJQ4Gn-120" value="&lt;font size=&quot;1&quot;&gt;u:&lt;/font&gt;&lt;font style=&quot;font-size: 9px;&quot;&gt;h7O8&lt;/font&gt;" style="connectable=0;recursiveResize=0;strokeColor=inherit;fillColor=inherit;fontStyle=0;align=center;whiteSpace=wrap;html=1;" vertex="1" parent="1fvloOwAejp9_GmJQ4Gn-119">
          <mxGeometry width="41" height="20" as="geometry">
            <mxRectangle width="41" height="20" as="alternateBounds" />
          </mxGeometry>
        </mxCell>
        <mxCell id="1fvloOwAejp9_GmJQ4Gn-121" value="drink" style="connectable=0;recursiveResize=0;strokeColor=inherit;fillColor=inherit;fontStyle=0;align=center;whiteSpace=wrap;html=1;" vertex="1" parent="1fvloOwAejp9_GmJQ4Gn-119">
          <mxGeometry x="41" width="60" height="20" as="geometry">
            <mxRectangle width="60" height="20" as="alternateBounds" />
          </mxGeometry>
        </mxCell>
        <mxCell id="1fvloOwAejp9_GmJQ4Gn-122" value="9" style="connectable=0;recursiveResize=0;strokeColor=inherit;fillColor=inherit;fontStyle=0;align=center;whiteSpace=wrap;html=1;" vertex="1" parent="1fvloOwAejp9_GmJQ4Gn-119">
          <mxGeometry x="101" width="44" height="20" as="geometry">
            <mxRectangle width="44" height="20" as="alternateBounds" />
          </mxGeometry>
        </mxCell>
        <mxCell id="1fvloOwAejp9_GmJQ4Gn-123" value="7" style="connectable=0;recursiveResize=0;strokeColor=inherit;fillColor=inherit;fontStyle=0;align=center;whiteSpace=wrap;html=1;" vertex="1" parent="1fvloOwAejp9_GmJQ4Gn-119">
          <mxGeometry x="145" width="35" height="20" as="geometry">
            <mxRectangle width="35" height="20" as="alternateBounds" />
          </mxGeometry>
        </mxCell>
        <mxCell id="1fvloOwAejp9_GmJQ4Gn-124" value="5" style="connectable=0;recursiveResize=0;strokeColor=inherit;fillColor=inherit;fontStyle=0;align=center;whiteSpace=wrap;html=1;" vertex="1" parent="1fvloOwAejp9_GmJQ4Gn-119">
          <mxGeometry x="180" width="36" height="20" as="geometry">
            <mxRectangle width="36" height="20" as="alternateBounds" />
          </mxGeometry>
        </mxCell>
        <mxCell id="1fvloOwAejp9_GmJQ4Gn-125" value="..." style="connectable=0;recursiveResize=0;strokeColor=inherit;fillColor=inherit;fontStyle=0;align=center;whiteSpace=wrap;html=1;" vertex="1" parent="1fvloOwAejp9_GmJQ4Gn-119">
          <mxGeometry x="216" width="43" height="20" as="geometry">
            <mxRectangle width="43" height="20" as="alternateBounds" />
          </mxGeometry>
        </mxCell>
        <mxCell id="1fvloOwAejp9_GmJQ4Gn-126" value="10" style="connectable=0;recursiveResize=0;strokeColor=inherit;fillColor=inherit;fontStyle=0;align=center;whiteSpace=wrap;html=1;" vertex="1" parent="1fvloOwAejp9_GmJQ4Gn-119">
          <mxGeometry x="259" width="43" height="20" as="geometry">
            <mxRectangle width="43" height="20" as="alternateBounds" />
          </mxGeometry>
        </mxCell>
        <mxCell id="1fvloOwAejp9_GmJQ4Gn-127" value="" style="shape=tableRow;horizontal=0;startSize=0;swimlaneHead=0;swimlaneBody=0;top=0;left=0;bottom=0;right=0;dropTarget=0;collapsible=0;recursiveResize=0;expand=0;fontStyle=1;strokeColor=inherit;fillColor=#EAF2D3;" vertex="1" parent="1fvloOwAejp9_GmJQ4Gn-94">
          <mxGeometry y="79" width="302" height="20" as="geometry" />
        </mxCell>
        <mxCell id="1fvloOwAejp9_GmJQ4Gn-128" value="&lt;font style=&quot;font-size: 9px;&quot;&gt;u:ie-W&lt;/font&gt;" style="connectable=0;recursiveResize=0;strokeColor=inherit;fillColor=inherit;whiteSpace=wrap;html=1;" vertex="1" parent="1fvloOwAejp9_GmJQ4Gn-127">
          <mxGeometry width="41" height="20" as="geometry">
            <mxRectangle width="41" height="20" as="alternateBounds" />
          </mxGeometry>
        </mxCell>
        <mxCell id="1fvloOwAejp9_GmJQ4Gn-129" value="drink" style="connectable=0;recursiveResize=0;strokeColor=inherit;fillColor=inherit;whiteSpace=wrap;html=1;" vertex="1" parent="1fvloOwAejp9_GmJQ4Gn-127">
          <mxGeometry x="41" width="60" height="20" as="geometry">
            <mxRectangle width="60" height="20" as="alternateBounds" />
          </mxGeometry>
        </mxCell>
        <mxCell id="1fvloOwAejp9_GmJQ4Gn-130" value="82" style="connectable=0;recursiveResize=0;strokeColor=inherit;fillColor=inherit;whiteSpace=wrap;html=1;" vertex="1" parent="1fvloOwAejp9_GmJQ4Gn-127">
          <mxGeometry x="101" width="44" height="20" as="geometry">
            <mxRectangle width="44" height="20" as="alternateBounds" />
          </mxGeometry>
        </mxCell>
        <mxCell id="1fvloOwAejp9_GmJQ4Gn-131" value="12" style="connectable=0;recursiveResize=0;strokeColor=inherit;fillColor=inherit;whiteSpace=wrap;html=1;" vertex="1" parent="1fvloOwAejp9_GmJQ4Gn-127">
          <mxGeometry x="145" width="35" height="20" as="geometry">
            <mxRectangle width="35" height="20" as="alternateBounds" />
          </mxGeometry>
        </mxCell>
        <mxCell id="1fvloOwAejp9_GmJQ4Gn-132" value="5" style="connectable=0;recursiveResize=0;strokeColor=inherit;fillColor=inherit;whiteSpace=wrap;html=1;" vertex="1" parent="1fvloOwAejp9_GmJQ4Gn-127">
          <mxGeometry x="180" width="36" height="20" as="geometry">
            <mxRectangle width="36" height="20" as="alternateBounds" />
          </mxGeometry>
        </mxCell>
        <mxCell id="1fvloOwAejp9_GmJQ4Gn-133" value="..." style="connectable=0;recursiveResize=0;strokeColor=inherit;fillColor=inherit;whiteSpace=wrap;html=1;" vertex="1" parent="1fvloOwAejp9_GmJQ4Gn-127">
          <mxGeometry x="216" width="43" height="20" as="geometry">
            <mxRectangle width="43" height="20" as="alternateBounds" />
          </mxGeometry>
        </mxCell>
        <mxCell id="1fvloOwAejp9_GmJQ4Gn-134" value="20" style="connectable=0;recursiveResize=0;strokeColor=inherit;fillColor=inherit;whiteSpace=wrap;html=1;" vertex="1" parent="1fvloOwAejp9_GmJQ4Gn-127">
          <mxGeometry x="259" width="43" height="20" as="geometry">
            <mxRectangle width="43" height="20" as="alternateBounds" />
          </mxGeometry>
        </mxCell>
        <mxCell id="1fvloOwAejp9_GmJQ4Gn-135" value="&lt;font face=&quot;Georgia&quot;&gt;&lt;font style=&quot;font-size: 18px;&quot;&gt;x&lt;/font&gt;&lt;font style=&quot;font-size: 12.5px;&quot;&gt;&lt;sub&gt;2&lt;/sub&gt;&lt;/font&gt;&lt;/font&gt;" style="text;html=1;align=center;verticalAlign=middle;resizable=0;points=[];autosize=1;strokeColor=none;fillColor=none;" vertex="1" parent="1fvloOwAejp9_GmJQ4Gn-93">
          <mxGeometry x="321" y="-3" width="33" height="35" as="geometry" />
        </mxCell>
        <mxCell id="1fvloOwAejp9_GmJQ4Gn-136" value="" style="shape=singleArrow;whiteSpace=wrap;html=1;arrowWidth=0.4;arrowSize=0.4;" vertex="1" parent="1">
          <mxGeometry x="586" y="522" width="64" height="28" as="geometry" />
        </mxCell>
        <mxCell id="1fvloOwAejp9_GmJQ4Gn-137" value="" style="group;rotation=90;" vertex="1" connectable="0" parent="1">
          <mxGeometry x="684.5" y="652" width="39" height="20" as="geometry" />
        </mxCell>
        <mxCell id="1fvloOwAejp9_GmJQ4Gn-138" value="" style="shape=waypoint;sketch=0;size=6;pointerEvents=1;points=[];fillColor=none;resizable=0;rotatable=0;perimeter=centerPerimeter;snapToPoint=1;rotation=90;" vertex="1" parent="1fvloOwAejp9_GmJQ4Gn-137">
          <mxGeometry x="10" y="-9" width="20" height="20" as="geometry" />
        </mxCell>
        <mxCell id="1fvloOwAejp9_GmJQ4Gn-139" value="" style="shape=waypoint;sketch=0;size=6;pointerEvents=1;points=[];fillColor=none;resizable=0;rotatable=0;perimeter=centerPerimeter;snapToPoint=1;rotation=90;" vertex="1" parent="1fvloOwAejp9_GmJQ4Gn-137">
          <mxGeometry x="10" width="20" height="20" as="geometry" />
        </mxCell>
        <mxCell id="1fvloOwAejp9_GmJQ4Gn-140" value="" style="shape=waypoint;sketch=0;size=6;pointerEvents=1;points=[];fillColor=none;resizable=0;rotatable=0;perimeter=centerPerimeter;snapToPoint=1;rotation=90;" vertex="1" parent="1fvloOwAejp9_GmJQ4Gn-137">
          <mxGeometry x="10" y="10" width="20" height="20" as="geometry" />
        </mxCell>
        <mxCell id="1fvloOwAejp9_GmJQ4Gn-141" style="rounded=0;orthogonalLoop=1;jettySize=auto;html=1;exitX=1;exitY=0.5;exitDx=0;exitDy=0;entryX=0;entryY=0.5;entryDx=0;entryDy=0;" edge="1" parent="1" source="1fvloOwAejp9_GmJQ4Gn-142" target="1fvloOwAejp9_GmJQ4Gn-153">
          <mxGeometry relative="1" as="geometry">
            <mxPoint x="841" y="577" as="targetPoint" />
          </mxGeometry>
        </mxCell>
        <mxCell id="1fvloOwAejp9_GmJQ4Gn-142" value="&lt;b&gt;beer&lt;/b&gt;" style="ellipse;whiteSpace=wrap;html=1;aspect=fixed;fillColor=#DAE8FC;" vertex="1" parent="1">
          <mxGeometry x="687" y="478" width="34" height="34" as="geometry" />
        </mxCell>
        <mxCell id="1fvloOwAejp9_GmJQ4Gn-143" value="&lt;b&gt;like&lt;/b&gt;" style="ellipse;whiteSpace=wrap;html=1;aspect=fixed;fillColor=#D5E8D4;" vertex="1" parent="1">
          <mxGeometry x="687.5" y="535" width="33" height="33" as="geometry" />
        </mxCell>
        <mxCell id="1fvloOwAejp9_GmJQ4Gn-144" value="&lt;b&gt;&lt;font style=&quot;font-size: 11px;&quot;&gt;thank&lt;/font&gt;&lt;/b&gt;" style="ellipse;whiteSpace=wrap;html=1;aspect=fixed;fillColor=#FFF2CC;" vertex="1" parent="1">
          <mxGeometry x="688" y="590" width="33" height="33" as="geometry" />
        </mxCell>
        <mxCell id="1fvloOwAejp9_GmJQ4Gn-145" value="&lt;font style=&quot;font-size: 18px;&quot; face=&quot;Georgia&quot;&gt;x&lt;/font&gt;&lt;font style=&quot;font-size: 15px;&quot; face=&quot;Georgia&quot;&gt;&lt;sub&gt;0&lt;/sub&gt;&lt;/font&gt;" style="text;html=1;align=center;verticalAlign=middle;resizable=0;points=[];autosize=1;strokeColor=none;fillColor=none;" vertex="1" parent="1">
          <mxGeometry x="657" y="496" width="35" height="36" as="geometry" />
        </mxCell>
        <mxCell id="1fvloOwAejp9_GmJQ4Gn-146" value="&lt;font style=&quot;font-size: 18px;&quot; face=&quot;Georgia&quot;&gt;x&lt;/font&gt;&lt;font style=&quot;font-size: 15px;&quot; face=&quot;Georgia&quot;&gt;&lt;sub&gt;1&lt;/sub&gt;&lt;/font&gt;" style="text;html=1;align=center;verticalAlign=middle;resizable=0;points=[];autosize=1;strokeColor=none;fillColor=none;" vertex="1" parent="1">
          <mxGeometry x="655" y="549" width="32" height="36" as="geometry" />
        </mxCell>
        <mxCell id="1fvloOwAejp9_GmJQ4Gn-147" value="&lt;b&gt;&lt;font style=&quot;font-size: 11px;&quot;&gt;thank&lt;/font&gt;&lt;/b&gt;" style="ellipse;whiteSpace=wrap;html=1;aspect=fixed;fillColor=#F8CECC;" vertex="1" parent="1">
          <mxGeometry x="688.5" y="696" width="33" height="33" as="geometry" />
        </mxCell>
        <mxCell id="1fvloOwAejp9_GmJQ4Gn-148" value="&lt;font face=&quot;Georgia&quot;&gt;&lt;font style=&quot;font-size: 18px;&quot;&gt;x&lt;/font&gt;&lt;font style=&quot;font-size: 12.5px;&quot;&gt;n&lt;/font&gt;&lt;/font&gt;" style="text;html=1;align=center;verticalAlign=middle;resizable=0;points=[];autosize=1;strokeColor=none;fillColor=none;" vertex="1" parent="1">
          <mxGeometry x="654.5" y="720" width="34" height="34" as="geometry" />
        </mxCell>
        <mxCell id="1fvloOwAejp9_GmJQ4Gn-149" style="rounded=0;orthogonalLoop=1;jettySize=auto;html=1;exitX=1;exitY=0.5;exitDx=0;exitDy=0;entryX=0;entryY=0.5;entryDx=0;entryDy=0;" edge="1" parent="1" target="1fvloOwAejp9_GmJQ4Gn-153">
          <mxGeometry relative="1" as="geometry">
            <mxPoint x="841" y="575" as="targetPoint" />
            <mxPoint x="721.5" y="551.22" as="sourcePoint" />
          </mxGeometry>
        </mxCell>
        <mxCell id="1fvloOwAejp9_GmJQ4Gn-150" style="rounded=0;orthogonalLoop=1;jettySize=auto;html=1;exitX=1;exitY=0.5;exitDx=0;exitDy=0;entryX=0.013;entryY=0.525;entryDx=0;entryDy=0;entryPerimeter=0;" edge="1" parent="1" source="1fvloOwAejp9_GmJQ4Gn-144" target="1fvloOwAejp9_GmJQ4Gn-153">
          <mxGeometry relative="1" as="geometry">
            <mxPoint x="842" y="577" as="targetPoint" />
            <mxPoint x="723.5" y="608" as="sourcePoint" />
          </mxGeometry>
        </mxCell>
        <mxCell id="1fvloOwAejp9_GmJQ4Gn-151" style="rounded=0;orthogonalLoop=1;jettySize=auto;html=1;exitX=1;exitY=0.5;exitDx=0;exitDy=0;entryX=0;entryY=0.5;entryDx=0;entryDy=0;" edge="1" parent="1" source="1fvloOwAejp9_GmJQ4Gn-147" target="1fvloOwAejp9_GmJQ4Gn-153">
          <mxGeometry relative="1" as="geometry">
            <mxPoint x="844" y="577" as="targetPoint" />
            <mxPoint x="738.5" y="684" as="sourcePoint" />
          </mxGeometry>
        </mxCell>
        <mxCell id="1fvloOwAejp9_GmJQ4Gn-152" style="edgeStyle=orthogonalEdgeStyle;curved=1;rounded=0;orthogonalLoop=1;jettySize=auto;html=1;exitX=1;exitY=0.5;exitDx=0;exitDy=0;" edge="1" parent="1" source="1fvloOwAejp9_GmJQ4Gn-153">
          <mxGeometry relative="1" as="geometry">
            <mxPoint x="945" y="568" as="targetPoint" />
          </mxGeometry>
        </mxCell>
        <mxCell id="1fvloOwAejp9_GmJQ4Gn-153" value="&lt;span style=&quot;text-align: start; background-color: rgb(230, 208, 222);&quot;&gt;&lt;font face=&quot;Times New Roman&quot; style=&quot;font-size: 24px;&quot;&gt;∑&lt;/font&gt;&lt;/span&gt;" style="ellipse;whiteSpace=wrap;html=1;aspect=fixed;fillColor=#E6D0DE;" vertex="1" parent="1">
          <mxGeometry x="832" y="539" width="57" height="57" as="geometry" />
        </mxCell>
        <mxCell id="1fvloOwAejp9_GmJQ4Gn-154" value="&lt;font style=&quot;&quot; face=&quot;Georgia&quot;&gt;&lt;span style=&quot;font-size: 18px;&quot;&gt;w&lt;sub&gt;1&lt;/sub&gt;&lt;/span&gt;&lt;/font&gt;" style="text;html=1;align=center;verticalAlign=middle;resizable=0;points=[];autosize=1;strokeColor=none;fillColor=none;" vertex="1" parent="1">
          <mxGeometry x="739" y="529" width="38" height="37" as="geometry" />
        </mxCell>
        <mxCell id="1fvloOwAejp9_GmJQ4Gn-155" value="&lt;font style=&quot;&quot; face=&quot;Georgia&quot;&gt;&lt;span style=&quot;font-size: 18px;&quot;&gt;w&lt;sub&gt;0&lt;/sub&gt;&lt;/span&gt;&lt;/font&gt;" style="text;html=1;align=center;verticalAlign=middle;resizable=0;points=[];autosize=1;strokeColor=none;fillColor=none;" vertex="1" parent="1">
          <mxGeometry x="737" y="485" width="40" height="37" as="geometry" />
        </mxCell>
        <mxCell id="1fvloOwAejp9_GmJQ4Gn-156" value="&lt;font style=&quot;&quot; face=&quot;Georgia&quot;&gt;&lt;span style=&quot;font-size: 18px;&quot;&gt;w&lt;/span&gt;&lt;span style=&quot;font-size: 15px;&quot;&gt;&lt;sub&gt;2&lt;/sub&gt;&lt;/span&gt;&lt;/font&gt;" style="text;html=1;align=center;verticalAlign=middle;resizable=0;points=[];autosize=1;strokeColor=none;fillColor=none;" vertex="1" parent="1">
          <mxGeometry x="731" y="566" width="38" height="36" as="geometry" />
        </mxCell>
        <mxCell id="1fvloOwAejp9_GmJQ4Gn-157" value="&lt;font style=&quot;&quot; face=&quot;Georgia&quot;&gt;&lt;span style=&quot;font-size: 18px;&quot;&gt;w&lt;/span&gt;&lt;span style=&quot;font-size: 15px;&quot;&gt;&lt;sub&gt;n&lt;/sub&gt;&lt;/span&gt;&lt;/font&gt;" style="text;html=1;align=center;verticalAlign=middle;resizable=0;points=[];autosize=1;strokeColor=none;fillColor=none;" vertex="1" parent="1">
          <mxGeometry x="734" y="628" width="39" height="36" as="geometry" />
        </mxCell>
        <mxCell id="1fvloOwAejp9_GmJQ4Gn-158" style="edgeStyle=orthogonalEdgeStyle;curved=1;rounded=0;orthogonalLoop=1;jettySize=auto;html=1;exitX=1;exitY=0.5;exitDx=0;exitDy=0;" edge="1" parent="1" source="1fvloOwAejp9_GmJQ4Gn-162">
          <mxGeometry relative="1" as="geometry">
            <mxPoint x="1076.1671346028647" y="566.3333333333333" as="targetPoint" />
          </mxGeometry>
        </mxCell>
        <mxCell id="1fvloOwAejp9_GmJQ4Gn-159" value="&lt;div style=&quot;text-align: start;&quot;&gt;&lt;font face=&quot;Georgia&quot; style=&quot;font-size: 24px;&quot;&gt;f&lt;/font&gt;&lt;/div&gt;" style="ellipse;whiteSpace=wrap;html=1;aspect=fixed;fillColor=#E6D0DE;" vertex="1" parent="1">
          <mxGeometry x="944" y="541" width="52.5" height="52.5" as="geometry" />
        </mxCell>
        <mxCell id="1fvloOwAejp9_GmJQ4Gn-160" value="HLR" style="text;html=1;align=center;verticalAlign=middle;resizable=0;points=[];autosize=1;strokeColor=none;fillColor=none;" vertex="1" parent="1">
          <mxGeometry x="900" y="533" width="42" height="26" as="geometry" />
        </mxCell>
        <mxCell id="1fvloOwAejp9_GmJQ4Gn-161" value="" style="edgeStyle=orthogonalEdgeStyle;curved=1;rounded=0;orthogonalLoop=1;jettySize=auto;html=1;exitX=1;exitY=0.5;exitDx=0;exitDy=0;" edge="1" parent="1" source="1fvloOwAejp9_GmJQ4Gn-159" target="1fvloOwAejp9_GmJQ4Gn-162">
          <mxGeometry relative="1" as="geometry">
            <mxPoint x="1076.1671346028647" y="566.3333333333333" as="targetPoint" />
            <mxPoint x="997" y="565" as="sourcePoint" />
          </mxGeometry>
        </mxCell>
        <mxCell id="1fvloOwAejp9_GmJQ4Gn-162" value="&lt;font style=&quot;font-size: 24px;&quot; face=&quot;Times New Roman&quot;&gt;y&lt;/font&gt;" style="ellipse;shape=doubleEllipse;whiteSpace=wrap;html=1;aspect=fixed;fillColor=#E6E6E6;" vertex="1" parent="1">
          <mxGeometry x="1040" y="537.12" width="60.25" height="60.25" as="geometry" />
        </mxCell>
        <mxCell id="1fvloOwAejp9_GmJQ4Gn-163" value="" style="group" vertex="1" connectable="0" parent="1">
          <mxGeometry x="821" y="391.5" width="208" height="60" as="geometry" />
        </mxCell>
        <mxCell id="1fvloOwAejp9_GmJQ4Gn-164" value="" style="shape=step;perimeter=stepPerimeter;strokeColor=#D6B656;fontFamily=Helvetica;fontSize=14;fontColor=#82B366;fillColor=#FFF2CC;fixedSize=1;size=17;fontStyle=1;strokeWidth=2;spacingTop=0;points=[];shadow=0;" vertex="1" parent="1fvloOwAejp9_GmJQ4Gn-163">
          <mxGeometry width="208" height="60" as="geometry" />
        </mxCell>
        <mxCell id="1fvloOwAejp9_GmJQ4Gn-165" value="&lt;span style=&quot;font-size: 14px; font-weight: 700; text-wrap: nowrap;&quot;&gt;&lt;font color=&quot;#d6b656&quot;&gt;Step 3&lt;/font&gt;&lt;/span&gt;" style="text;strokeColor=none;align=center;fillColor=none;html=1;verticalAlign=middle;whiteSpace=wrap;rounded=0;" vertex="1" parent="1fvloOwAejp9_GmJQ4Gn-163">
          <mxGeometry x="66.82125603864735" y="15" width="75.36231884057972" height="30" as="geometry" />
        </mxCell>
        <mxCell id="1fvloOwAejp9_GmJQ4Gn-166" value="" style="shape=singleArrow;whiteSpace=wrap;html=1;arrowWidth=0.4;arrowSize=0.4;" vertex="1" parent="1">
          <mxGeometry x="1160" y="546.5" width="64" height="28" as="geometry" />
        </mxCell>
        <mxCell id="1fvloOwAejp9_GmJQ4Gn-167" value="Assets" style="childLayout=tableLayout;recursiveResize=0;strokeColor=#98bf21;fillColor=#CCFFFF;shadow=1;" vertex="1" parent="1">
          <mxGeometry x="1232" y="541" width="267" height="45" as="geometry" />
        </mxCell>
        <mxCell id="1fvloOwAejp9_GmJQ4Gn-168" style="shape=tableRow;horizontal=0;startSize=0;swimlaneHead=0;swimlaneBody=0;top=0;left=0;bottom=0;right=0;dropTarget=0;collapsible=0;recursiveResize=0;expand=0;fontStyle=0;strokeColor=inherit;fillColor=#ffffff;" vertex="1" parent="1fvloOwAejp9_GmJQ4Gn-167">
          <mxGeometry width="267" height="23" as="geometry" />
        </mxCell>
        <mxCell id="1fvloOwAejp9_GmJQ4Gn-169" value="" style="connectable=0;recursiveResize=0;strokeColor=inherit;fillColor=#A7C942;align=center;fontStyle=1;fontColor=#FFFFFF;html=1;" vertex="1" parent="1fvloOwAejp9_GmJQ4Gn-168">
          <mxGeometry width="45" height="23" as="geometry">
            <mxRectangle width="45" height="23" as="alternateBounds" />
          </mxGeometry>
        </mxCell>
        <mxCell id="1fvloOwAejp9_GmJQ4Gn-170" value="beer" style="connectable=0;recursiveResize=0;strokeColor=inherit;fillColor=#A7C942;align=center;fontStyle=1;fontColor=#FFFFFF;html=1;" vertex="1" parent="1fvloOwAejp9_GmJQ4Gn-168">
          <mxGeometry x="45" width="44" height="23" as="geometry">
            <mxRectangle width="44" height="23" as="alternateBounds" />
          </mxGeometry>
        </mxCell>
        <mxCell id="1fvloOwAejp9_GmJQ4Gn-171" value="like" style="connectable=0;recursiveResize=0;strokeColor=inherit;fillColor=#A7C942;align=center;fontStyle=1;fontColor=#FFFFFF;html=1;" vertex="1" parent="1fvloOwAejp9_GmJQ4Gn-168">
          <mxGeometry x="89" width="45" height="23" as="geometry">
            <mxRectangle width="45" height="23" as="alternateBounds" />
          </mxGeometry>
        </mxCell>
        <mxCell id="1fvloOwAejp9_GmJQ4Gn-172" value="thank" style="connectable=0;recursiveResize=0;strokeColor=inherit;fillColor=#A7C942;align=center;fontStyle=1;fontColor=#FFFFFF;html=1;" vertex="1" parent="1fvloOwAejp9_GmJQ4Gn-168">
          <mxGeometry x="134" width="44" height="23" as="geometry">
            <mxRectangle width="44" height="23" as="alternateBounds" />
          </mxGeometry>
        </mxCell>
        <mxCell id="1fvloOwAejp9_GmJQ4Gn-173" value="..." style="connectable=0;recursiveResize=0;strokeColor=inherit;fillColor=#A7C942;align=center;fontStyle=1;fontColor=#FFFFFF;html=1;" vertex="1" parent="1fvloOwAejp9_GmJQ4Gn-168">
          <mxGeometry x="178" width="45" height="23" as="geometry">
            <mxRectangle width="45" height="23" as="alternateBounds" />
          </mxGeometry>
        </mxCell>
        <mxCell id="1fvloOwAejp9_GmJQ4Gn-174" value="a" style="connectable=0;recursiveResize=0;strokeColor=inherit;fillColor=#A7C942;align=center;fontStyle=1;fontColor=#FFFFFF;html=1;" vertex="1" parent="1fvloOwAejp9_GmJQ4Gn-168">
          <mxGeometry x="223" width="44" height="23" as="geometry">
            <mxRectangle width="44" height="23" as="alternateBounds" />
          </mxGeometry>
        </mxCell>
        <mxCell id="1fvloOwAejp9_GmJQ4Gn-175" value="" style="shape=tableRow;horizontal=0;startSize=0;swimlaneHead=0;swimlaneBody=0;top=0;left=0;bottom=0;right=0;dropTarget=0;collapsible=0;recursiveResize=0;expand=0;fontStyle=0;strokeColor=inherit;fillColor=#ffffff;" vertex="1" parent="1fvloOwAejp9_GmJQ4Gn-167">
          <mxGeometry y="23" width="267" height="22" as="geometry" />
        </mxCell>
        <mxCell id="1fvloOwAejp9_GmJQ4Gn-176" value="drink" style="connectable=0;recursiveResize=0;strokeColor=inherit;fillColor=inherit;align=center;whiteSpace=wrap;html=1;" vertex="1" parent="1fvloOwAejp9_GmJQ4Gn-175">
          <mxGeometry width="45" height="22" as="geometry">
            <mxRectangle width="45" height="22" as="alternateBounds" />
          </mxGeometry>
        </mxCell>
        <mxCell id="1fvloOwAejp9_GmJQ4Gn-177" value="w&lt;sub&gt;1&lt;/sub&gt;" style="connectable=0;recursiveResize=0;strokeColor=inherit;fillColor=inherit;align=center;whiteSpace=wrap;html=1;" vertex="1" parent="1fvloOwAejp9_GmJQ4Gn-175">
          <mxGeometry x="45" width="44" height="22" as="geometry">
            <mxRectangle width="44" height="22" as="alternateBounds" />
          </mxGeometry>
        </mxCell>
        <mxCell id="1fvloOwAejp9_GmJQ4Gn-178" value="w&lt;sub&gt;2&lt;/sub&gt;" style="connectable=0;recursiveResize=0;strokeColor=inherit;fillColor=inherit;align=center;whiteSpace=wrap;html=1;" vertex="1" parent="1fvloOwAejp9_GmJQ4Gn-175">
          <mxGeometry x="89" width="45" height="22" as="geometry">
            <mxRectangle width="45" height="22" as="alternateBounds" />
          </mxGeometry>
        </mxCell>
        <mxCell id="1fvloOwAejp9_GmJQ4Gn-179" value="w&lt;sub&gt;3&lt;/sub&gt;" style="connectable=0;recursiveResize=0;strokeColor=inherit;fillColor=inherit;align=center;whiteSpace=wrap;html=1;" vertex="1" parent="1fvloOwAejp9_GmJQ4Gn-175">
          <mxGeometry x="134" width="44" height="22" as="geometry">
            <mxRectangle width="44" height="22" as="alternateBounds" />
          </mxGeometry>
        </mxCell>
        <mxCell id="1fvloOwAejp9_GmJQ4Gn-180" value="..." style="connectable=0;recursiveResize=0;strokeColor=inherit;fillColor=inherit;align=center;whiteSpace=wrap;html=1;" vertex="1" parent="1fvloOwAejp9_GmJQ4Gn-175">
          <mxGeometry x="178" width="45" height="22" as="geometry">
            <mxRectangle width="45" height="22" as="alternateBounds" />
          </mxGeometry>
        </mxCell>
        <mxCell id="1fvloOwAejp9_GmJQ4Gn-181" value="w&lt;sub&gt;n&lt;/sub&gt;" style="connectable=0;recursiveResize=0;strokeColor=inherit;fillColor=inherit;align=center;whiteSpace=wrap;html=1;" vertex="1" parent="1fvloOwAejp9_GmJQ4Gn-175">
          <mxGeometry x="223" width="44" height="22" as="geometry">
            <mxRectangle width="44" height="22" as="alternateBounds" />
          </mxGeometry>
        </mxCell>
        <mxCell id="1fvloOwAejp9_GmJQ4Gn-182" value="" style="group;rotation=90;" vertex="1" connectable="0" parent="1">
          <mxGeometry x="1365" y="619" width="39" height="20" as="geometry" />
        </mxCell>
        <mxCell id="1fvloOwAejp9_GmJQ4Gn-183" value="" style="shape=waypoint;sketch=0;size=6;pointerEvents=1;points=[];fillColor=none;resizable=0;rotatable=0;perimeter=centerPerimeter;snapToPoint=1;rotation=90;" vertex="1" parent="1fvloOwAejp9_GmJQ4Gn-182">
          <mxGeometry x="10" y="-9" width="20" height="20" as="geometry" />
        </mxCell>
        <mxCell id="1fvloOwAejp9_GmJQ4Gn-184" value="" style="shape=waypoint;sketch=0;size=6;pointerEvents=1;points=[];fillColor=none;resizable=0;rotatable=0;perimeter=centerPerimeter;snapToPoint=1;rotation=90;" vertex="1" parent="1fvloOwAejp9_GmJQ4Gn-182">
          <mxGeometry x="10" width="20" height="20" as="geometry" />
        </mxCell>
        <mxCell id="1fvloOwAejp9_GmJQ4Gn-185" value="" style="shape=waypoint;sketch=0;size=6;pointerEvents=1;points=[];fillColor=none;resizable=0;rotatable=0;perimeter=centerPerimeter;snapToPoint=1;rotation=90;" vertex="1" parent="1fvloOwAejp9_GmJQ4Gn-182">
          <mxGeometry x="10" y="10" width="20" height="20" as="geometry" />
        </mxCell>
        <mxCell id="1fvloOwAejp9_GmJQ4Gn-186" value="&lt;b&gt;&lt;font style=&quot;font-size: 18px;&quot;&gt;repeat&lt;/font&gt;&lt;/b&gt;" style="text;html=1;align=center;verticalAlign=middle;resizable=0;points=[];autosize=1;strokeColor=none;fillColor=none;" vertex="1" parent="1">
          <mxGeometry x="1541" y="519.5" width="72" height="34" as="geometry" />
        </mxCell>
        <mxCell id="1fvloOwAejp9_GmJQ4Gn-187" value="Step 5" style="shape=step;perimeter=stepPerimeter;strokeColor=#56517e;fontFamily=Helvetica;fontSize=14;fillColor=#d0cee2;fixedSize=1;size=17;fontStyle=1;strokeWidth=2;spacingTop=0;points=[];textShadow=0;fontColor=#56517e;" vertex="1" parent="1">
          <mxGeometry x="1649" y="389" width="207" height="59" as="geometry" />
        </mxCell>
        <mxCell id="1fvloOwAejp9_GmJQ4Gn-188" value="" style="shape=image;verticalLabelPosition=bottom;labelBackgroundColor=default;verticalAlign=top;aspect=fixed;imageAspect=0;image=data:image/png,iVBORw0KGgoAAAANSUhEUgAAAUUAAAEfCAYAAADWYdTMAAAAAXNSR0IArs4c6QAAAARnQU1BAACxjwv8YQUAAAAJcEhZcwAAFiUAABYlAUlSJPAAAEY9SURBVHhe7d0HYFTF1gDgsy09gRR66L1Kl6YgRez4BAUr8gAbPlQUbChW7A2VX0WKioIUAQEpKkV670gJEHpIQkjPZus/Z3aWhGSzMzchl0DOh+PO3OxuNlvOzp1qcLlcUw0Gw6NACCHlHIuFBqPIE0IIYXStKToys2FZZBtRkmuzd7bIKXC7wQBuUZCrsO43kVPjat5e5ORyIqqKnJrQCydFTs4RHCFycsbcbDBnp4mSXHql+mAPUr//6LgNIqfIZhUZBZYAkVFgDgB3YLAoyOVWqCJycvaAUHCa1B9LeMoxkZNzBoWLnBotj8OUnQEBScdF6fILumuEyGm32NJY5NQ0euMZaPjqU6JUuqimSAghBVBQJIToyhho0JQMZoO4pT4uS1Ds06cP9OrVS5QIIaRoBiMLdFqSvjGx5EHRZrNBv3794MMPP4SEhATYsMHTzrRlyxY4fPgwzxfUbcs86LpuligBRHZqDV3W/goBlaIhuE4NaPX9e+InHkfjj8PAoU/wvN1uh8NHj8Hjz42BpX+vgu279sDGrdth34GDsHLtBpg49Sd+vVNnzsLvy/6CTyZOglz2GBMSk+CREc9B/IlT8O+hw7BoXzy8snADnEzNhIT0bH6bjfEJ8PBPf/J8/Pl0fvxMWhYsP3AS9sQdh/n/bOY/23/sFByIPw3fzlsOGdk5kJaZDWeTL8B38//k+R9mL4B/Nm2D/YeP8Os/O+592LH3X57fezAO3v/6e/6Y5i5eDumZmXDwxFno+cy7/OdOpwv2sftfvfNfWLl9P5xOSoGXv5kJe46ehMQL7DGx34MOxp+CW554mefdbjfsjYuHlZt3wvnUdDiZkMRSIv9ZfvvZ7+n76peiBPDOjCUi57Fq7XrYf+AQ/LH8b14+yB7/4SNH4YdfZsGW7Tvh4cee5se/nfITHDkWz/PDJs6CD35bARk5uby8dPsB+GuX53X/a9chmPTnRp732nr0NAz/br4oAUxfswtOJKdBWrYVTrLLUT/lPaYZa3bC+gOe34MWbN4HL0/3/Pyv3Ydh7b+e9ruxPy2E4+fOw+nznufm3Z8XwcKNO+Ff9ve+OGkO7GbPHdrDntePZy+FIa++D+9//wtk53jaOB9+8V34/MfZvDzltz8gk72maMGKdbBgyV9w6Gg8/Dp/ET92JP4ET99M+xkWLvsbziUlQ8qFVHj6pXFw7Ljn92zYexgOnTwLkxet5OUjp89B3Klz8MnMxfDW1Ln8vbJs0y6YNPcP+PfoCZ7Q4n82wa6DR2H5+q2QkpbBX8MTLG3eewDuf3E8v860eX/AfvZa74vz/O1/sevu2H8IlvyzAXYdiGPvpyywOxz8Z2gMe76W7jzE8/g+8ebRqfNp8Nh380QJ4Ax7f01ZuRX+N2UhL+faHfDAFzN5/odV2+FMSjocTUzh5WtZiYNiQEAAdO7cGcaOHQvDhg2DoKAgfrxDhw7w2muv8TzKyMiATBYALJEVYPfjY+HYlz+KnwCk7z4IpuAgsCWdB0vFCHaZ98QnJZ+HenVqw629buJlDCIN69WF/nfdAbf06gHLVq6GNi2bw5qNW+CGTh3hrAgGy1etgbv69oYzCecgkD3GY8dPwMvPjoA6tWJZkD0JkcGBvFumZsUwWB13mt+mU52qEBJg5vlnflsDUaFB8OLv62HWjjho2aA2LFyzhf/s23nLoAkL3nNWbIDwkGD48Y9VUC0mEobccRO7Tzf8OOd3uPH6dvD1tBn8+vfe0RfatGgKWezD1rRhPUjPyASj0Qj9+vaEs+eSoXGtanB/7y78ulYW9JvXjYW5q7dAzSrR/ANVnd13s9rV4eiZRAgKtLDAlwaN68TC/bd5nhOnywUtGtSBWcv/gW9nL4KqMVEwbqLny8HrfHoWNGO/56GbOoojALExFUXOY8Efy6FZk0aw9C/Ph3naL79Cw/r14Pcly6BD29b8tUbNmzViz+EJsDmc0KVxHRjYrTUcY0EJ3dK2Cb9Eva9rJHIeGdZcaF+vBjzQ7TpxBKBJjRh+WSEkiP3tDqjILr2+Wb4RujSpI0oA/To2BzN73lDvVg35JcqwOaE2e67+3LqPl9OycuDmdi1gzZ5DkMKe6zd+XMCPN6lZFZJSM6Bv145wb98ecDoxmR/v2KopPHBHHx6AHr7rZhg53vPF0bdrB9iyazc0qlcHNm/fxY9hcKxfpxas37Id7uzbC3btPwBRkRXBmpsLR094guKSDTuhUc1qsOOQJ6DP/Gs9NIitAlv/PQKx7Iv/CHsdYyqEwy9/rICm9WrBlzM8j2/On//AdY3rwYwlq2DagmXsdYyGd779GTq2aAJhwZ6OpMns9W3GXuvPp/3Ky9N/Xwpt2Osx/ffl0KJRPf5eH/9N3mv/dN/OcEtrz+tgYFUubx5FsOe6JXtOvHYfT4D+17eAyhVCeTnQYobgAAvPD+7RFi5kWaFu5SheLgmDxagpAast6umynD57ffHFF/DLL7+A1er5BjaZTPwSmc1mXrZfSIP6o4ZCtXtvA2Og50NmCguB5JUbISC6ImSxGllog1r8OIphb4zUtHRYsWYdHIo7CiHszXGBBYWVrIy1v6EPDgITu+8WTRvD8VOnIDwsFI6xN2f761qyb/TjEBEeBi4WNHLYB7I+C64YJK9v1xrWHzsLdlYry7DaoBX7YO47mwK57EPudLn58Yc6NIasXDtEs8DYrR5+mNKhY7OGcCY5Be7s1h5S0jOhUwvPB3PV9r38Mv5sEiSmpEHLxg3h1NkEHvQwEK5mATuR3S6UBVB87G1bNuMfImuujT0uK//gzl+zFf5ltc8A9rcks1pCF3bf+OFq06gubNwfB2fZ/baoFwuHT5yG6IoVeE1iwcoNcODYSfaeMUIye167tWkOPa9vAznsvkPZl0x+0RGhPDDO37iL1aAS+DGrzQE5NjvPo+vbtYHzKSnQtnUr9twmQl/2pYOPt33r6yCX3Sc+jw5WC5k2/VdPkDSbYFf8GdgSdxKqRnp6rbPwb2L36WK1Eqw9Ym3DKzwoEBJYzXzF3iNw8IwnIGWz6+JtMGBWjwyH85meWhq6mX2Az7C/G+8jhdXA8f7sTif/WTa7TTZ7fVzs9cImp3T2PLdrVAf2sefQbDLCYfZl0pJ9ubw3dACMH9qf3yYlIxu6sed17fbdsIXVvmLY84i27jsI67bvgeosYOWw94NT/A788gkJ8rxm9evWZmcfCXBT1078/diQBco/V6/lrwU+hk7sPYXvOdS+aT24kJEFtavGwHFWa7+pbXNIZeW61SqzGv8JaN2wNmxnAbNbmxbsdUyHu2/qwl/HrqyclJIKN7ZryVIr/h4JDgxkf78dHC4nrwH27NyOP67+LKgfPHYCenZqD4mshty9Yxt+XxlZ2WCx5H3uFu04AMdY7Q5r4gifQ2+tfvxvK+Gx3h14HjWoGg3bWU0ea4Sn2fOO8AsXX5tD7PXaFHeCvwdKysheMC1J7+5gGpKjiIbkFEZDcgqjITlyf1ZpIXJq6r/4NNQb5Wk+K200JIcQojuDhdX+tCTTVXz6TAghMr5Okf0lvatuFBQJISQfCoqEEF35PEX2k/TufdZ3lRyHDayzPxMFubSdnl5dFYE1a0BQrZqipMBuExk1zmRPb6kKU2SkyKnJPuR7PKcvWaLXtjRE9OgOlqrqnUS2cM9wGlVBJ/aLnJy9RgORkzM47GC0q3fi5EZUFjm5gKQTYMr0jH9Ukb3XMyxIhaVvP5FT5FbvSDRkZ4A58ZQoydmq1QdHBfXXM6rVDSKn3eqmrUVOTZ2RT0HtJx8TpdJFHS2EkKvOjh074LfffoPp06fz8rRp02D58uU8P27cOHj55Zfh9GnP2OPioKBICNEV9iZrSXFxcfDMM89AfLxnMPwHH3wA99xzD/z4o2cCyKOPPgrz53tmSW3evBneeust+Oabb3i5OCgoEkJ0ZWSBTktq2LghnxhSp45ndlOzZs34ZbVq1fglmjhxIp/GiDPqcIKB9zrFUWpBccWKFXxqHyGElETBbpbXX3+dX/7www/80stgMMC8efMgODgY7r//fnFUu8sWFFu3bg0///wz7NmzB1q0aAHZ2dmQmFh4UQJCSPnmcyUcP0nvZXIuS1BMTU2FCRMmwIMPPgjh4eH8fD8sLAwqV87r5Zs8eTJMnXZpZCeElD8Gk1FbuhqDYsWKFWHZsmW856dnz54QExMDN9xwA7Rr105cA2Do0KEw5NHBokQIKa98tRv6S1ftjJZ3330X3nzzTTh69CiMHDmSr4hz6FDe2m2EEHI10DkGE0LKO1/thv7SVdmmSAghqnydIvtLOsdECoqEEJKfvnOf7TbInv6eKMjlhKvPUTVmpYExU31BVVPzvCXxVZiOq89PzmmgvpAusuxcI3Jy9vRMkZPjU2U1rJQc2KgRmCLUF5l1BWtbJNVwXEMbc/XaIqPAngtg9eyzo8LhzluZWuZ0cGNItagvStswd6fIyR2vqm3+cFRglsjJWexZEJZ1RpTkcsKrgl3Dore1GjcXOe22du8scmpqDH0Mqj0yRJRKF8591jUoujEoTnlTlOTsHdV3CHQd2gfug3tESc5yu2eJelUBh9Tf7KltbhY5NREbfxc5Obc9b/sAKRYQ3U71oGiKqQQGsceOkoBAkVHjiPds5KXCXD1W5OTcuVZwZ6sHDFeWegDdUfNeOBnZVpTkekdtEzm5zVZtCyPUClffNCrIlQ2RjnOiJJdlqQg2k/rq5Y3q520ZotW2m7qKnJrq/x0O1R7Wp96GMZFOnwkhJB8KioQQXfnqYfaXCs3zK2WXLSjiwG1CCJHx1cPsL7EzWnFLfZQ4KOJ2pgMGDIC///4bBg8eDM8++yw/fuutt8Lw4cN5nhBCrhYlDopr1qyBOXPmgM1mgyeeeIIv2ZOeng5LliyBJk3yNkbPysqCbA2N4YSQa5OvU2S/6Wo7fb7++uth/PjxPCji5cqVKyEiIgLGjBnDA6NXaGgohISEihIhpLwyGI2akt5RscRBEQPgK6+8Ajt37oSFCxfCjBkz+HGsNR45oj4EgxBCyoISB8Wi1KtXD44dOyZKhBDi4fMU2V+iuc+EkGuZrx5mf4nmPhNCyBVEQZEQoiufp8h+kt5VRX0XhHA6IHvjAlGQO1+5qcjJBeVcgOAc9bmhsFV9EQZkrqE+F9ce20jk1CRHqm/8XmXNzyInZzCbwaBhfnJOnZbgCFPfyD88bovIqXFnpoucApf6xu9aZR/1bJWpIjC2BpgrVhQlOXus+mtpSTopcmrcwRpGb9isYEjTsIl/zWZgj8zbHU+mStO8VfW1+rd/H5FTU2nQoxBz74OiVLpo7jMhRHe+aoP+0lU7zY8QQq4Flz0o4kbUhBBSFF+1Qb/pahqSgzvyf//995CZmXnxEme4fPrppzB//nz49ttvxTUJIcTDZ+Dzk66q0+euXbvCsGHD+I7806ZNg7p16/L5zqNGjYKxY8dCQECAuCbwgdzH4tUbuAkhxJe1a9fCP//8A9988w0v457zuCANwq2UExMTeb64ShQUu3fvDvv27YO5c+fyze6NRiPf2hRrjAsWLOD7QXtVr14dqldT790ihFybfM1v9peOHjsKL7/8Mpw86emtx2B44403wu+/e1asxy2VW7ZsyfNNmzaFxx9/HLKz1VdXL6hEQfG9996DaizQ4dJhuAH+gQMHYNKkSXw5saioKLjpppvENQECAwN5IoSUb75mrfhL9evX54vN1KxZk9/ebDZfcomGDPHs4fLCCy/w9Rdmz57Ny8VR4o4WDH5YQ4yOjobIyEge+DBAYj5/TZEQQooDO1ryd7ZgU93EiRPh119/hXXr1sHnn38OvXp59nPCM9SlS5fytV2Lq8RBkRBCtPDVmeIv+epoeeqpp3hfBvZr4MLW2I+B+vXrB3fffTfPFxcFRUKIrny1G/pNV9OQHEIIudboO/fZYYPsn98XBQUN1Dfcdpks4DbnDQGSMbDHooU5QX04kTtDwxxfJrnTPSInF5mivnCvwxIM9kD1Dc6Dk46B2aphs/2kBJFT46rfTOTkDHwnfzWG7EwwpKvPe09t3kPk5MzOXDC61CckJIbUETm5f89rG41RLUL9tamQeRLqnlohSnLuEPY+CVDf8zu4x/0ip138sH4ip6bi3Q9AxTsGilLpYrGQ5j4TQvTlq93Qb6LTZ0IIuXIoKBJCdOWzM8VPYlVFcUt9aA6K+QdkE0KIVj5Pkf0lfWOi9qDocrn4Xs+LFi3i6c477+RT/F577TW+5zPOS8SFInbv3g1t2rQRtyKEEA9ftUF/qczXFHH2yg033MBHjt9xxx3wxRdf8ONvv/02n5OIATIpKQmWLVsGgwYN4j9DOMJ86LDhokQIIWWT5qB43XXX8csWLVrAvffey4Nj1apV+TGccoMr5VSuXBk2btx4cQI3+uGHH2Dy95NEiRBSbmHNT0vSee0wGqeoiMYpFkbjFAujcYpyp0dqG3MYcft9EN63vyiVLhqnSAjRn7fyp5p0RkGREKIrHIytJbH/iVvqg4IiIURXBpNRW9I5KOrapuh2OiBr7W+iJGfOVG8nclmt4MrJESU5UwVtaz1mxLYQObnwff+InBp7A0/nlQpLuvpS666gMHCERYmSnCXtHBhtVlGSy9m1U+TUBDVXbyN2VlLfZxubH90a9ok2pp8XOTmD3QYGp1OU5HJiG4ucnO2stmXzDTVqiZycxZYJIemnRUmBOQDcxrxFW2VCuhd/LvLZ5x8QOTXht9wLYX3+I0qli8VCg75B0eWEzG3LREnOcjpO5ORcmZksZYiSnLlSZZFTk9LCs4ilisgti0ROjbuW+gbqxgwNXxTB4eCMiBYlOXN6MgsCuaIkl7Vpk8ipCW2l/sVir6H+nLiNJnAZLaIkF3R8r8gpsNlYhFYPio66TUVOznxavdMM2epo6Khir6M5O02U5HhAZM+jqpAb7xM57RJGPyRyasL6DoCw3iVbI1EVxkQ6fSaE6MrnrBV/SefOFgqKhBCST4mD4ldffSVyhBBy9St2UMzNzYW9e/dCamoqrFixgs91RqtXr+Z7sMbFxfENZAghJD+fp8h+0lUzJKdGjRrQvHlzvr9qjx49+HaDAwcO5HtB//e//4XHHnuMB02vjIwMyGSJEFLO4SIPWtLVEhRjY2P5/Gbc0hT3e8baIm5QnZCQADk5OfDtt9/Co4/mdWpj0DTl26eVEELKomIHxZ07d0Lnzp1h3LhxfMmwp59+GkaMGMFrh88//zw0bNiQ7//shdsRYiKElG8GVvPTlsQNdVLsoFiU3r17w4svvihKhBByKV9rJvpL7BaeG+rksgdFQggpTbjQdbVq1eDcuXO8jAtd169fn+cPHToE7du35wtdFxcFRUKIrnz1MPtLbvbPZrNdDHRjxoyBs2fPwsiRI3l54cKFcOSIZ3bQ6NGj+er/kyYVf+1WfYMi/lEup3Jym8zKCUwmbUkjg9upnIA/Hg3JbldPOAlJOeFph3pyGc18XUrVBIFB2hI+HtXkdGhI7Hlnl6rJ5+8rKrHXx23GtToVE3veVVOpYvfv6zUrKuFUSXYjDakE8JRYQzKyxxYQEMBeDs/vxWGACIcFIqvVCgMGDOB5DJy4O0B6urY1TfPTeZFZO1j/+E4U5HJqq8+VxcUjLBoWkIBMbU+avWYjkbv83Gv/FDk5c4euIifnsgSCIzBMlORyAyPAaVJfqDfIpu05xEVsVRnOa1gsAUc1WNQft5bFVO0RlcAZpOU5DBc5uQp7VoqcGpuGhUNslhDICKkiSnLhGachyKo+Vzqs010ip13KO4+LnJrg7ndB8A23ixLAmTNn4I033uBbnKxatQreeecdePLJJ+HTTz+FWbNmwW+//QbfffcdREREiFuoY7GwtL+uCCHk8qpevToPel27doVXX32VDwHEgIjuu+8+mDlzZrECohcFRUKIrrAupi2V8HRdIwqKhBB9GVmQ05LKQlBMSUmBsWPH8hkp2HCJvT0///wzzJkzh29jil3hiYmJ8MILL8C///4Lixcv5gO30fTp03mvEO4N3aFDB36MEEKuFj6D4s033wyvvPKKKAFv1MRxQVu2bIEnnngChg/37N/88ccfQ58+feCWW27h+RMnTvBtTSdMmMD3hvb2CCEMrviPEFK++Rqg7S+ViZpizZo1eU3Qa+vWrRcbLnFMUO3atXkeBQUFQZcuXXgwxLFE2AjqhXOivRwOB0+EkPLN11hEv0nfmOg7KM6bNw/q1KkD06ZN442cuNADjhJHOHr8yy+/5BveI1wibNOmTdCoUSNo0KAB7yb3mjp1qsgBWCwWsJjVl4wnhJArwWdQLMoHH3wgcoQQUkwGPCXWkEo6WFwj/I2EEKIbn6fIflKZaFMkhJDyioIiIURf2KOsJelcU9R/M/z180VJTstTwRdjcLlESS4jRNu+z8FH1Td+N1WtJnJqsh3qHVChVvWN3HEjfFt0DVGSM1ozPQsmKDI71PeIRka3+n3bDepzmY0uu6bHkh6ZN3pCxoyfS4P6UDJTWpLIyZnZ862FO0R9DrYjIBSyItTfhxZbFpicNlGSi2rdQ+S0y/jieZFTE9j5Fgjo2EeUShfOfdZ9M/yMnStESS4g+ZTIybktgeAOCBQluaQq6otNoKgl34ucnKVRE5FTk1q7rcjJVdz9t8jJ2SOrgrV6Q1GSC75wCky2bFGSM2jYJB45Q9Xno1ojqoqcnJk9ZkuO+mIGiVVaipxcsC0dLE6rKMmFnNwvcnLOinkr06sw5uaInJwjMBSsFfOGx0mJZblUVWp+vchpV9aDIvseJIQQHfk6RfaXqKOFEHIt89XD7C9ddUER1zLzpSQr3xJCrmEFxyHK0tUyTrFv3758xgvCBSR27drFZ7fEx8fDwYMH+X7QeB1CCLmaFDsobtu27ZJ9nXHBh7lz5/LpgY0bN+Y1xZ9++kn8FOD666+Hbt26iRIhpNzCU2Itif2np2IHRdwoBle4bdeuHXz44Yd8TwTc2vS5556D/fv38yXGKlSoAE7RQ4nzo3FDGUJI+VZ4EVlZ0jcqFjsoYsAbNGgQ3HrrrfD+++/zRSPQZ599xjfHx1phYGAgmIqxSRQhhFwpxQ6KhBBSLL5Okf0lGpJDCLmW+VpI1l+6atoUCSHkWqT7NL/UPeqdLcFnD4ucglwrgFV9GpSWPXSRU8P3R1aYtnnV0ce3iZycIVV97jPuhewOChYFudyYWpr2ONY6NSxdw3zzCjnq+z47jRZwmNSneEYkqb+v3OYAAA3t4jkhlUROLiz5qMipyYlUn7ZnyrgAlhN5K9/LpNfrAFb2+quq00B9+mhB2VPGiZwaS9ueYGndXZRK17U1zQ8/oLgghGIyuLUlwFXDFZPbaNaUDOzLQjVpwp4TX/dRVGLXBjd7Sygno0lbMqgnrXw+viKSr7+9yISvPb63FJPPv7uIpBl77MoJr+50KCf24Nlzg6+/WioRPCXWkkr6+zRiv5EQQq4ulSpVguTkZJ4fOnQotGjhWeAFt0PBES8l2Q+KgiIhRF9Y89OUxO2E0aNHQ1JSEjz99NO8PHnyZGjY0HM6jwERt1w2m828XBwlDoreuc84YLsg2veZEFKQrx5mf8npdEFGRsbFiSA4rRjl5BTuQ5gyZQr06NHj4hTk4ihxUMzKyoKlS5de3N0Pd/DLzc3lm+ITQkhJmc0mCA8PvzgRBPehHzlyJIwaNQrGjx8PL730EuzZs4f/bMyYMfDII4/Af/7zH14ujhIHRZzzHBoaCmfOnOHlIUOG8O1QH3roIf4zr0OHDkHc4ThRIoSUW746hvylAufPuC/9hAkToHv37vDKK6/wGXW4GA3CKcezZs3iM+6KC39jiSxbtoxXWY2smus1cOBA2Lt3L9jtdnEE+Ab6tWrVFCVCSLnla9aKv4TtijoqcVBcv349TJw4EZo2bSqOAIwdO5avlrNu3TpxBPg86ACWCCGkLCtxUAwODuap4MIPYWFhPBFCSH6FV8HxnwqePpe2EgdFQgjRxNcpsr/E/tMTBUVCiL6w9qcp6RsV2W8khBDipeuCEOCwg3XZZFFQEBAkMgr46J+8IUAyF2q1ETk1kSfVN8PXsgE9CojbJXJy7pgqIifnupACrjPqe2ebwsLAYLGIkpyrnrb9rU0X1Bd5yK7ZXORUuMGQb/iXjMOs/r4KzEwGc26WKMk5g0JFTs5kV99PGlnD1RfUwOeDz9tWlBUUBTZLiCjJ1a3fQOS0s87+ROTUmJt3BXOzTqJUuq6tBSEIIVcHHL6nJdHpMyGEXDnFDoreeYiEEKJJoY4UWbpKaoq4ex8hhGjGV77RkHRW7KDohROwcQc/3Ac6ISEBdu/eDXfeeSdfziczM1Ncy1OzdLqodklIuYdxTmvSUYmDYlBQEJ983ahRI75STnR0NLhwdWsm/yyX77//HqZMmSpKhJByy1dt0F/SOSrSkBxFNCSnMBqSUxgNyZGz/v61yKkxN7kezI3ai1LpoiE5hBBSAAVFQoi+fI1F9Jf4KbR+2G8khBAdFWwzlCWdUVAkhJB89N0M326DzEmvi5KC9jeIjJzLFMA3RVcVcF69AwKZ09U3oXfj/s8aOKOriZycS0vnk8PBnnP1rR6NBr7zsyjJadloH+UEVBQ5ubBzh0ROzhUUCs7wSFGSc2uoC1gyzoNJS0dLYoLIyZkqVxU5NZnV1Tu2TFlpEJigvtl+ZvXGYKug3okX21BLR9ilrH98J3JqsJPF3KCtKJUu7GjROSjmQsaXL4qSgh63i4yc0xQIDrP6yt7h8TtETlG2+geDb4yugb2eZ89aFS6jlq0btW1cbnQ5NPVYapURXl3k5KIO563aLuMKiQBHRfWeWS3MLCgarRqC4oljIidnqllH5NRk1GolcnL4uIOP7xMlucxaLSE3Sv31qdGopchpZ136vcipMTdsB+b62kaLFBfGRDp9JoToq2CboSzpPE6RgiIhhOSjHBQHDRokcpfCqX1o0qRJ/JIQQvy6ZLEHlSRupxP2G9WsWLECXn/d00nSrVs3vgn+8OHD4auvvoLbbruNH8e5zv369YPly5fDgw8+WKINqQkhxKOMnj63atUKbr31Vp73zm3G2uGTTz4Jf/zxBy8/8MAD8NZbb0GVKlXgxRdfhCNHjvDjCHf4j6lUOo3hhJCriK92Q39JZ8pBEWuABvYA77vvPoiPjxdHAUJDQ+Hrrz1zGb/77jteS5wxYwbMnTsX+vTpw4+jjIwMSE5Sn/tKCLlGFQx60iRuJ8yfPx/2798P48eP5+Vff/0Vbr/dM1LliSeegDlz5vBVu4pLOSj+73//g06dOsGsWbPgzJkzPBiiihUrwogRI/ipdNWqVWH06NHw/vvvw5tvvgmffKJtLwZCyLXPbTRqSg6ni6/f6l3YeubMmdCsWTNYtWoVLw8cOBACAgJ4/vjx47wCh4GzuJSDIiGEXAlmsxkiIiIuLkWIzXinTp2Cdu3awa5du+D8+fNgs9n4z7DpbvPmzdC7d29eLg4KioQQffnsYfaTCpw/Dx48GGJjY+G9996D6667jq/hunjxYv6zadOmQdeuXaF79+68XBz4GwkhREcY5LQkfek7zc/lhJT9m0RJLjjtrMjJGdIvsJQiSnJn2vcXOTXV1s8QObnTXR4UOTWxcStETkGmhr1xTGaAAPWpjzmV64AzKFyU5MLOHBA5Na7QCJGTyw2LETkFGhdUDTqjPq+aP4fGvBXkZeyR6vOHTdna9jlyBqu/Ng5LMGSHVhIluSDrBbDYc0RJLqJdX5HTLmeV+mcJWeq2BHNt9amwJUHT/AghusOVAbQlfWuLFBQJIfryOezGT9IZBUVCiL4KdqRIk76Bkf3Gy8utcdksQggpSzQHxYkTJ8IjjzwCL7zwAhw+fJgf+/333/lI8nvvvZdP+8NpgM8//zzvHieEkEsYWdjRksp6TXHYsGHw448/woIFCyApKYkfw9Hk33zzDUyYMIGX0bhx46BmzZqi5KlBUi2SEHJJe6FK0pnmoIjzny9cuACpqal8rjOqVs2znP7Zs3lDaLZs2cI3yffCKTreaTqEkPILV4PXkljU8dxQJ5qDosVigcjISF5L9J4e46hy1LZtW15jNLIqb69evaB9+7wNrHGqDiZCCNFE58qi5qBICCEl4TaatCWdwxQFRUKIzrynxIoJL3REQZEQQvKhoEgI0Rd2nmhJOlcVdV4QwgVnD+8VJbmoE9tFTg7bHvjkfUWGzFSRU5Ner4PIyYUn/CtyamwV1TfDt+SkiZyc22AEt5bn5OQRMGSpL1KQ1HWgyKmpErdG5OTcgRo22rfbwGDNFgU5Z6UaIifnMgdqeg5N1gyRk0uppL65Pfo3u4HIyYUbM6F2wClRkktxx0A2eBaOVtGxSd7IEq0yNnuW+VIVGNsIAqo3FKXSRQtCEEJIARQUCSH68nWK7C/pfPpcoqCYmOh/I6qTJ0+KHCGECJcs9qCSrqKgGBPjfyHQNWvU25AIIaQsUAqKubm5fMvSV199lc9zxhri3r17+Qb5zz33HL/O/fffDwMGDOCb5OMWg7ijX352u50nQkj5xjsAtaSyePqMG9vj7lhpaWmsJmvg25tiHnmn7uH8Z9zwHoPkzTffDJmZmfy41/r162HDxg2iRAgpt/K3F6okndGQHEU0JKcwGpJTGA3JkUvf/qfIqQms1oCluqJUumhIDiFEd3g6rCXpjYIiIURXhdoMpUnfwEhBkRBC8qGgSAjRF6v9aUoFTqFTUlLgtttug927d/Pyxx9/DLfffjvPDx48GO64444SLWitb0eL0wGZW5eIkpzlhPqm5e7gUIAQ9YZiZ4i2hmLTSc9+NCqSWt8mcmpiNswROTlDLfXGdndaKrgTz4iSnLNBS3BFRIqSnMGo7bSGvdlETi4rtLLIyVlyMyAoO0WU5MxJ6h0Qtpia4AhTf07MDvUN5S3n81aqV+GyWkVOzhYeA2mxLUVJzsXqR3iqqqp+/Xoip92FXatFTs3mg8fhniFPwqpVq6BDhw4waNAgmDlzJh/lsnz5cnjjjTd4wpX/t2/fDpMmTYLJkydDdHS0uAd1V6SjxeB2KyfQkgCTBgW7/SXJ4HIqp8JtIv4TYLBQTZqw58TXfRSReNsN9uIrJl+vmb/k63ktKvl6nvwlX/dRZMLHopo0Y/evmAxul6ZkcjuUk9GtrabEn5pLujf8p5Lw9fr5Szd278HHP2NARJUre74wvdud7Nu3j19WqlSJ1xhnzJgBS5aoV74K0j0oEkJISXg3yJs9e/Yll94x08HBwfDQQw/xfHFQUCSE6KtgzV0l6ajEQRGrtV7nz58XOUII8c3XKbK/xKKi54Y60RQUcaP7Z599ljd0equnn332GfTv359vjo+GDh0KDz/8MJ8X/cwzz/BjhBBytdAUFG+44Qa+MMRjjz0GU6dOBavoDRs5ciR89NFHPI+LRrz99ts8/8477/BLhBvj12+gz+q5hJCyy3fXjb+kL01Bcd26ddClSxfe5f3II49AUFAQP/7ll19eXC1n7NixFwNkfri24pE49WEthJBrk69TZH9J7zbFYo1TxODYtWtXUVKH4xSztvwhSnJmLeMUcYxiSJgoyTlDK4qcGnO8+iIP59r1Ezk1ldbOFDk5Q51GIifnTrsA7oTToiTnaNwa3BXUx3ZpHfahRWZoFZGTw3GKwdnq7dnmcydETs5WqZbGcYrqYwkDktXHS3IaFr3IDa8EF2q2FiU5HoBYrUxVvfr1RU67pH2bRE5NaOVYCNGwiEdJFHucYnECIiGEcAV7lmVJQ7C+HIoVFAkhpLjcLOxoSxQUCSHkitE/KPqYXlZUwsU9VROfOO5rmlZRCSeMa0m+qvVFJIPDpim5zRbl5Ov3+U0mk3rC67PvZeXk4zXzlwo2oPtLBrdTQ/L9+y5Lcjq0JV6rUUwFX6vLmfA3FJgm6D9d2t8rSyWB00m1JPYLdaXrghDgsIP1j+9EQS6jgfpq1wGp5yAwVX2CvTslWeTUGCqrr47tOqPekI/SO90lcnKh6eoLPOA8bKNTfV8clznAs4K5Ikuitr/zbJPeIidX5cwOkZPDVbcNGeorqdvij4mcnDEsFIyBgaIkl9NO/W8MyL4gcmrMmeqLXuAXqDMoXJTkrMFRYA9QX1CleuNWIqddwgH11xaFxVRjqaoola5id7QQQsi1ioIiIURXvk/Ii0568xkU/c1h9i7TQwghxeGrDdl/0jcw+gyKv/zyi8gV1qZNG5Hz7dtvv4WMDPUdzQghpCy5GBRTU1Nh+vTpfF4zwsUfNm3aBBEREXDjjTfyY4sXLwa32w02m42veHvgwAFYunQp/xkuCvHSSy/xPLrvvvvgxIm8hnhcHrwkS4QTQq4NBXuXZQl0PoW+GBTtdjtf0faTTz7h5dzcXGjWrBmcPn364uKNLpcLe2cgICCA75OAeyQ0aOBZHr927doQGRkJRqPnLn/++edLguK0adPgx+k/iRIhpLzy1W7oP+lLaUgOLv7w448/ilIJ0JAcn2hITmE0JKewa2VIzsnD+0VOTYXoShARVUmUSpfykBzvCjiEEHKtUwqKss4VQghR5fsU2X/Sk1JQJISQy8X3sJuiEzup9dxQJxQUCSEkH903w9e0yOx59U4FR0QM2CPUG2PNtrwNt1Rkhat3tATYMkVOTcgp9QVszzTuJXJyQdZUCM9KECU58/mzYMhVX8jUVqupyKlxGdQ7cQLTzomcAj50Q/373W0JEDk5R2AYOM3qHS1aOqqCU7QtMmtM1rB5Pi4eEhwiCnJJlVpApob3eNP6xV/0NT5OffFoVDEqmic9KHe0EELI5VLw9FiW8EtPTxQUCSEkHwqKhBBd+epdlqX80tLSoFevXrB/v2e841dffcXLaNWqVdC3b9+LO40Wh3JQLGoPZ5z2RwghqnxN5fOXcHowrqfgnSb8xBNPwN9//31x/HRSUhIvJyQkwAcffACLFi2C8ePH858Vh3JQnD9/PgwcOJBP3YuLi4Nu3bpB8+bN4fjx4/Duu+/CoUOH+AM6fPgwjBkzhu/9fPDgQXFrQggpJhYYcaqxgV2imJgYfhke7pmxg2swIDyOU5BxOjJOWS4u5d5nrCk2atSIz3G+4447IDo6Gtq1a8cXhsDa4rZt23gwxIiN8Bj+7JZbbuHlxMREAJcTQuK38LIK6n0ujHqffeA1CvWWIOp9LkzP3ue4I+rTLFFUVCRERV66JTGuzYABEGuPuN4CLlKD+9B7F6wJ1DA1Mz9Nvc+dOnWCpk2bwu233w4jRoyA+Pj4iwEPV8f566+/YMWKFfxnGzZsgBdffBH27NnDf44wcleqpM/8RUJI2eV7x76iEwtVnhvmg0EPa45Yg8SgiAER4bHiBkQvGqeoiGqKhVFNsTCqKcodPnJc5NRER1VkNcUKolS6NNUUCSGkPKCgSAjRlYuFHS2p4JCc0kZBkRCiK7FruHLSGwVFQojOsOannvQOjLp3tGRv+l2U5Exn1RtkHZFVWFLfMNtiTRc5Nc5A9VWJA06od5ygC008e+CoCMlWXzHcZM0Cc5b66s5uS6CmjoLkai1FTk3lQ6tF7jJj7yuwq68wnltX/XHjatcmDZ1PYFOfSaFlJXIUYksTOTmbIQgyzJGiJFfBlgjBTvUOwqiW3UROu3+PaOtgqhRVAWIi1VcRLwnqaCGEXAG+a4RFJ31RUCSE6MrtZqfEmpK4oU6KFRTffPNNkQNo3769yHmsW7eOz0EkhJCrUbFriqNGjYKJEyeCw+GArl278gnYd955J3z++ef856+++iqMGzeO5wkhxMvXsBt/Se9T6GIHxU8//RSmTp0qSgCvvPIKXyQCN9FHOO8ZN8j3wmmBuHgEIYRooXfvc7GDIga/gsvzXLhwAX76ybPhPc5z/vjjj3ke1alThy8mQQgp3wqulShLetcUaUiOIhqSUxgNyfGBhuRI7YnTMK+dqRIVBpWj1D9/JUFDcgghuvPdw+wnidvphYIiIYTkQ0GREKIrFxg0JU+7on70X09x8yJRknOlqbehQFAwS+rrxxkN2irluUHq7TMhJ/MW11WRUbu1yMkFZ50XOTmj3QqmXPV1I7E9UcsbMLV6c5FTE3Vko8jJaWnDNdhzwZibI0py1trqj9uScV7bc+hyiZxccp2OIqcm2KrePmw3BUNmgPpeyaGONAh0qbedRrfoInLa7Tis3i6OqkWHQNUo9c92SWCbou5BMXPbMlGSS45uLHJyYUlHIDwxTpTkcmPV7xslVmgocnI1Tm0QOUUamnaNGSkip8Bs5p0nqgw57EOBnRaKbLGNRE5NwNkjIieXVbuVyMmZs1MhMFW98T67mvprGZB2Dsw5GaIk5wiPEjk5VwD7ItfAkqo+KQIXx7VWrC5Kci4je69oeB9WbdJG5LQr60GRTp8JIbry2ZkiSXqioEgI0VX+MYgqSW+ag6LKPs8LFy4UOUIIubpoDorslFvkijZy5EiRI4SQS/k6PfaXWNTx3FAnfoMibjL9ww8/wL59+2D27NkwaNCgi7v040b4b731FnvQbh4E7XY7v65L9L7dfffdsGPHDp5HuBcrXocQUr75OkX2n/TlNyhi0Bs4cCBkZ2fzucu4+bRXlSpVIDQ0lNccc3Jy4Ntvv+XXxU2q0Zw5c6BixbwNrLdu3Qpbt20TJUJIeeWrNugvASYd0ZAcRTQkpzAaklMYDcmR23RAw/hjJjYmCGrE+H4fnzp1Cl5//XUYPnw4dO7cmR97+OGH+Yb477//PgwZMgQGDx4MAwYM4D+ToSE5hBDd4emwluRwOiEzM/Ni011+X375JUyZMoUHRoTXw5W6evf2LLZx5MgRuO2223heFQVFQoiufJ0i+0v4z2g0XuzkHTZsGPTo0YMnDIIIf46wKQ+FhYVBTEwM7N+/n/d/aEFBkRBSphlNRggJCbkY+L7//ntYtWoVTx999BHUrFkTZsyYARaLha/j2qBBA96HsXv3boiNjYU1a9bw26mioEgI0ZXvHuaik78hORgsT548CVFRURdHt8TFxcEbb7wBrVq14m2OGBi10LWjBZx2sC7L28JAJrmB+qTzIGsqBOWoT5g3Hda2aAPE1hUZOUNmqsipSWzcQ+TkwnI0LDJrywZLtnqjtisgSNMis+x8RmTU5AarL6oRlJkkcnK2wHCwhqgvflAh5ajIyRnOnQJDhobXU0Mzvbuuts6+rMiaIieXbQiFJKN6R0tFSIEQUF/4onpj9Y6wgtbtV1/MFtWqFAA1WdIDdbQQQkgBFBQJIbrydYrsL7H6m+eGOqGgSAjRlcutLbH/dKU5KKanp8Nrr712cTpfSkoKzycnJ4N3sYjU1FTeNY7HCCHkaqIpKDocDhg9ejTvCvcGvI4dO0LPnj3BarXyn8+bNw9Wr14NDzzwAJhMGhrtCSHlgq9TZP9JX5qC4tmzZ2Hs2LHQpUterzAGQpwDjd3eOE4IN8m/88474auvvoKnnnpKXAsgOjoaqlavIUqEkPLK1wBtf0nvuc+agiIOkty7dy90796dD5KcPHkyjBs3DmbNmgVff/01D5A4UHLx4sWwadMmfj2v8+fPQ8KZ06JECCFlE41TVEXjFAujcYqF0ThFqZV71DcZQ3WrWKBOZbMolS4ap0gI0Z2vbUz9pTLf+0wIISXhq93QXyrTbYqEEHKt0z0oukwW5WR02pWTQcMm5MhttmhKLqOGZArQlHwPQ/CdtMBFQ3HxUG3JpJy0MricyolVETQkPCVjf6ti0sKN70VLkHJym9nrqZrY66Mp+Xg/FJUM7HkxO3OVk9FdeK3C0lLo5ZMlcTu96LvyNgtcJ48cFCW5ykfWiZycKyQCnCypcrJgpMX5CnVETo5X+TVwgEXk5KKt6j34NlMw5FjCRUnOYND29quSuFfk1Bhzs0VOAQsCqlJDqsO5Ck1ESa5R8lqRk0uLiAVrkHoHUXjueZFTgJ94DawB6q9lQPYFqJBwQJTkMirVh9ywGFGSi23UQuS0W77LJnJqGlQ1Qb0q+ox5po4WQggpgIIiIURXvuY3+0saK9QlVuKgiLv3+do7gRBCfCnYuyxNUIZ7n5977jn47LPP+MyVJ598ErZs2YLn4DzhSrf4s1GjRvF9EyZNmsSvTwghVxNNQTE+Ph5atmwJixYtgv79+8MLL7zAa4m4Ss5ff/3F94XGuc+4pSBeB5cI91qyZAksXaa+vSkh5Np0Sc+yQtK7+1lTUMT5zbjhPS4K0atXL+jWrZv4CfAVcbDGiHAJMVxe7Prrr+dlhFsO4m0IIeWbr1kr/pLOMZGG5KiiITmF0ZCcwmhIjtyi7Q6RU9O4mhEasqQHFgtpSA4hRF/5T42VkridXigoEkJ0Vah3WZJY/c1zQ51QUCSEkHx0blN0QtLu9aIkF5KeIHJyjqBwsAdXECW5HEOIyKmxQK7IKXBqm4ftsKg/liC3ersczvN1gvr0KD7nWMPJitup7cTG4rCKnJwD1NfPcxotYDcGipJcpFPDWo2WUHCY1e872Kq+9qJLw/2ijJDKIidntmVDcPpZUZJzhlTg62mqqtqkrchpN3+LtnHNTWsYoXF137VFHPkybdo0eOSRR8Bs9rxnsHzffffxjfIXLFgAffr04XkV2Kao8yKzDshZM1sU5KyR6otkYiO0NUC9oyXVVVHk1DRK+kfk5Iw2DQGUcYSpN+TnBqkHfhMLQpZc9Y3HDfZc/JYUJbkj1fNWVlcRaFB/Xqwu9Q9oRPYZqJyq3qmQWamByMkF5Kbz51GVKUf9+baH5Q1ZU5FYoaHIybETT/YBV38tQ2xpEOBQX/w1uoX6AtAFzdusMSjGGqFJEUFxypQpMGjQIBg2bBj88ssv/Biu+l+rVi3Izs6GhIQEGDp0KBw4oPb+wJhIp8+EkDJt+/ZtcMMNN8D+/ft5eevWrXzzPEybN2/mtcALF/JW3Q8LC+OXy5Ytg65du0L9+vV5WRUFRUKIrvIvcaaS2rZtx/d+atasGb99+/btoUePHjzdf//9sGPHDh40veOgjxw5AocOHeI1SBwv7d16WRWdPiui0+fC6PS5MDp9lpuzSVube/NYAzStoU8PNJ0+E0J0V2gcoiyJ2+mlWEHx+eef5/OgX3rpJfj444/5AhE///wzbNiwgZ/DHzx4EP78809o2rSpuAUhhFwdihUUP/nkEwgMDISjR4/CunXr4KabboIHH3yQ/wznODdu3Jh3g+NxL2wIvZCqvgUpIeTa5LM26CfpXVUsVlDEDfCxKxwXhvjggw+gU6dO/HiVKlV4I6gXNn56RUZGQmRF9bYzQsi1yeU2aErY2aIn6mhRRB0thVFHS2HU0SI3c722ql/LWgZoHisKpYw6WgghuvN1iixLeqKgSAjRla+g5y/pjYIiIYTko2+bIuN2FN7z9cTxE1Crdi1RysfH2T2OTsdkNF76M94YK1b+zm/evHnwn//8R5Ty+Gq8dTgcYLfbITg4WBzJY3QVXhhz4sSv4amnRohSfr6/3pwOJ5jMPhZo8PG45879Dfr3v0eU8vPd6Lx7zx5o1bKlKOVX+LEsX74cbu5zc+G7KuJb+euvv4IRI54WpTy4eX5BdrsNLBbfC/hiO1dBdruDXb/w/fh6fY4dOwq1a9UGo+nS59DgdrF06XxarGFs2rTxYifgJQyFXwPcVgNHR8REF1xoFR9z4cc9beo0eHSIj49NEc+hw2EHs7nAYsI+Xnf0008/wcMPPyxKeXBD/ILOnTsHMTExfOV7FWvXrr1kxfyL2BNW8PVxulxgKvA58zKY1BfsKMimbY1Z9hg8SQ/YpoirTExlQeaKWrFihcjJsTevmwUuUZIbMGCAyMnl5OS4k5OTRUkuNjZW5NTg/avq16+fyKmZMmWKyMk99dRTIqemRo0aIieXmZkpcmqys7NFTm7p0qVum80mSv7h++S9994TJTmr1erev3+/KMm1bdtW5NRo+Ts7d+4scnI7duxw5+bmipLcG2+8IXJyqs/1tYQHRr1rinrDvxODf2koS/et5fqled9lSVl6fbS4Wu/7WsCem2u/97k03wBl6b61XL8077ssKUuvjxZX631fK654UHznnXdgyJAhcPasfEFMb9tgWloav5TB9dS8SdXGjRtFzj9Ww+b3i+2QMklJSfy6jz76KL+dDLYpoRtvvJFf+jN9+nR+mZGRwS8vt+TkZJGTw3a5lJQUpb8Rpaen8+ti7cWf/K8jJhnV3++1cuVKvgTVgAEDxBH/8P7ZqaX0ceeH11exbds2+Oqrr/iagDK4RiA+37fccos44h++V7OysvjrpIKdloPVqj5G85rBXuAr2qbIAobIyX3yySe83efYsWPiiH/r16/nl9j+s3z5cp73B+8f26JUYLtckyZN3CNHjhRHirZw4UL3okWL3OfOnXMfPnxYHPUN23HYF4V7yZIl7pMnT4qj/n300Ufu06dPi1LR8LkbNWqUe9euXe6HHnpIHPWvQ4cOvH1z9uzZ4kjRdu/ezZ/DMWPGiCNFw3ZkFhTd7AvOvWbNGnHUP2z3Y0FRlPx74IEH3I899pgo+YfXHTFihHvr1q3iiH/x8fHut956yz169GhxpGh//fWXmwUi/neuXbtWHC3asGHD+Ouj0hY+adIkd+vWrZU/D/icDx8+3N20aVNxhBR0xYPiPffcczGdOnVKHC0avrmwETo6Oloc8a9y5cruwYMHu+fMmcM/sDIqb1qvp59+mndAqH7wEPumdrPnW5SKho+3T58+PMl8/PHHF5MK/ILAwDJhwgRxxD+87oULF5Q6ifBLCP9GDBoyGCRYzZ+/nqyWK44W7YcffnC3atXKfccdd4gj/uEXhWoA9X4xq34h4nON971lyxZxpGj43GGHHH4hsZqdOCqn0smBXxJI5T2FvJ0yeKmiTp067k6dOolS+YAx8YqePs+dO5fvp5CaqravxTPPPMOH2Pzxxx/iiH+33norX3ASV+5p6XO4Sh5W8+Mr/TzxxBPiiH8NGzbkC1ninG4ZFiz4Kdpvv/3Gh0TI7N27lw+bwSSDzQ64apHqqR8ON8L0v//9Txzx7/z587Bz586LS737wwIFf22+++47caRo7IuQnz7jqsn4Gsng9fr378+Xl1eB969yyjp//nxgH36+YOntt98ujvpXrVo1YDVAYLV/caRor7zyCn+P4J4hsva8M2fOXEzY5CKDw9Lwdfnwww/FEf/w/YTvWV9DznzB1x1XvipvrnjvM66yExERwV+oBg38z0nNzMzkS42zUzm49957xdGisdohsNoF1K5dG44fPy6OXh7sdIu3z7BaK181yB/88LBaJR9Txk65+YfQn5dfflnkAN577z2R823GjBl8ibapU6fCF198IY4WDZd6CwoK4pv8qHwBYFsbfmFg26+s7QofC37ZYtsVbiTkD66aVLGiZ/45thF78/54A0WlSpX4pT/4PONjwWXsVLAzFX7JanX80h8MiPhFjgGanTGIo76xU1a+SAo+Fvyywy9of7A98d133+XjZf215+JiKxhk8TFUrVoV/vlHPjf/oYce4veNYxpV/k6sgCBf43yvVew5vbK9z9iQi/st4BsHg4vMs88+yy/xm1pFQEAAsNMuvsSZCqw9qdRaEL4RcaWgt99+WxwpGjvl443b9erVkwZEFBcXx7/RVR4L1oCxtqjS2I5fEvjFU7lyZYiKUluMAGs6EydOlA4Oxi+Iu+66C/r168eXgZfBWjzWzPDLjX0xi6NFGz16NA+GKgGxS5cuPKio6t69Ow8SKoEC4fVxALQsICJ8vk+ePMkDnCwgIvziZ6f+0K5dO3HEN1yeH38/vk/+7//+Txz1D59DrCDI/s5jx47x1wQDrmrN/JqCNUU8l74S2IdZ00BsbDvp2LEjb+SWefzxx3mbH7bLPfzww+Kof6y25WanDKLkHzZY43X37dsnjhQNO0327NnjXrx4sZvVWMXRok2ePJm3P/Xs2VMckVNtU0TYoZCYmChK/mF7G6vNu9kpmjji27Zt2y4mlYb/ZcuW8XZFVTioHtsgtQzGV/XMM8/wdm3V+2ant7zzSWUgNLZlY1srti2qvtfZlyHvhJL59NNP+eX27dv5pUzDhg3dLVq0cPfq1Usc8Y/V/N2sRixK5cMVD4rPP/88723DzgoMkJfbhg0b+GX9+vX5pQqVIIewsdqbZDAAYA/rrFmzlIIiO2V1s1Nb98yZM8WRop04cYJ/KMaPHy+O+MdqaPw2Kr3mqH///rxzQ+X18X6Qn3vuOX7pDwYLVlN0v/7660pB9IUXXhA5NXfffbd74MCBonR59e7dm7+e2Jkjgx2I06ZN44nVusTRouHfiQEan3cZ7Ix58MEH3Z999pk4UjS8LnYOYVKdWYXv7YiICFEqHzAmXvMzWnAcl+qpIrZtYWeByuk5niZiRxF2cGBjvT8s6PNOBfT555/zU29/+vbty1c2R7///ju/LIr3vrF9Cdv0/MHr4mk8jj1bvXr1xXY0f3A/3f/+97/8ecRmAH9wrGR4eLgo+Yf3h6fzqHXr1tI2RWzwx1NFNHjwYH5ZFOxg8Z7aqnT64CrxuFMcnrLK2kLRli1boEOHDqLkH/6N77//Ps/jznKyLTpY7fNipxmr1fHLomDHIPvi5O2m3ufGHzwtxuYbfK+owHZk3FZUpZPtWnHF2xT1oBoQEb74Kr3DCNvYsPcPOyxk8E2OnSD4hlfpEb3zzjt5MJQFRIRbP+Bgb5X2LQwQ7NScf5hUAiLCgIhtdPhlIbNgwQKRkwsNDYVGjRoBq7UAO5UXR33Ddk0cqIxtz5hksC0Z29kmTJggjviHzyF24syZM0cc8Q+/2B5//HEekGSwDRTbN/F1V2k3x3Zk/NJSGTSNW4AsXLhQ6TlB+JqzmjkMHz5cHPEPOyfZGYUolR/XfE2xtGAAwCE27Pm7OAOlKFg7Gzp0KFSoUIF/oFS/qVVgTy92Vlx33XU86F4tsLaFQ4ksFguvcctqihiUMcjhGU7+3vnLATtBcFgL3jd2csjg8B0cTYDbcmBg92fp0qV8iA2+B/B2OJTLH+yMwfcJ8jf0DHuy85PVKhF2xuEX9N13381X1pHBWi6OmMCadHmBNcUr2qZ4NXvyySdF7vLDdiK8f9UB1mXFm2++ydsI2ZeFOFI0nGHknaHCTuXF0aLhTBzsqFDtrMD2xCFDhvDOEFlHhNYByt7B6SrtnDjA25tUOk9U4f3hgHZsN3/22WfFUf/++ecf3lb56quviiP+sQDt/uabb0SpfOCBkWqK2k2aNOnimDn8YrncNRc8ZcWxgXi6ywKN8hCkK+3XX3/ll3hKjPO8/cFTOfy7VNcBZB9Ovm0uwpqlDA73wsHesgHWBdsQf/zxR5ErGguy/LQVb1u3bl1x9PLB2hnCjeD8wTGkOFd/1apV/KxFBptjcAgceuutt/gluRTWFCkolkE4k8AL20Rr1fKxAG8ZhHuB4+B6HL85ZswYcfTywMHSnTt35qe42L4ogwsrYBueyrhQhAEU289wDKIMzsLCdlY85ccxn5cTtic/99xzPN+zZ09+6Q82K+DEB/xylsE2cwyg2Gm1Z88ecZTkR0GxjMJeYhwUjjXGxYsXi6NlG9besJMAOzmwxxqD4+XETvn4BxkH8KsECy2wjQ1HEOCsENnKRFg73LVrF58pdfPNN/tcIbskMPD36tWL57H3l+iLgmIZhQ34OI0Qg4tKD3R5gKfD2IOLtVHZPHatsJaIs55wmBD2FntPMa8E7KnGefIIgy7RF8bEa35IztUI2xOxpjhr1ixxhOC4TRwDebkDIsK59NhmiaeWVzIgIjw7wGl4V/pxlGcUFMsYHCuH81qxbUtlFRZSch07duTtbSpjA0sbnsrjCj/YWUWuDDp9LoNwVRKsueACFVRbLH040wOX9sJTZ9Vl6ci1iU6fyyhsV8LBuaqrtpDiwx7ktm3b8pWJcN1LQqimWEbhLIjq1auLEilNuPQa1sxx/vPAgQPFUVIeYU1RZAkhhAAA/D+O4pSF21lDwwAAAABJRU5ErkJggg==;" vertex="1" parent="1">
          <mxGeometry x="1641.0010740152998" y="511.9996745808921" width="325" height="287" as="geometry" />
        </mxCell>
        <mxCell id="1fvloOwAejp9_GmJQ4Gn-189" value="" style="shape=singleArrow;whiteSpace=wrap;html=1;arrowWidth=0.4;arrowSize=0.4;" vertex="1" parent="1">
          <mxGeometry x="1553" y="549" width="64" height="28" as="geometry" />
        </mxCell>
      </root>
    </mxGraphModel>
  </diagram>
</mxfile>
